<svg width="63" height="63" viewBox="0 0 63 63" fill="none" xmlns="http://www.w3.org/2000/svg">
<path d="M24.4464 13.8115L13.8633 19.3474V38.5726H33.495L38.5572 27.9604H24.4464V13.8115Z" fill="#4B4B4B"/>
<path d="M49.1408 3.19946H13.8633L24.4464 13.8116H38.5572V27.9606L49.1408 38.5727V3.19946Z" fill="#4B4B4B"/>
<path d="M50.9045 42.1101H43.8491C42.8749 42.1101 42.085 42.9023 42.085 43.878V58.0286C42.085 59.0046 42.8749 59.797 43.8491 59.797H50.9045C55.7693 59.797 59.7241 55.8314 59.7241 50.9531C59.7241 46.075 55.7693 42.1101 50.9045 42.1101ZM50.9045 56.2594H45.6128V45.6475H50.9045C53.8219 45.6475 56.1961 48.0283 56.1961 50.9531C56.1961 53.8781 53.8219 56.2594 50.9045 56.2594Z" fill="#4B4B4B"/>
<path d="M37.4669 42.2447C36.8151 41.9718 36.0525 42.1202 35.5442 42.626L29.7374 48.4525L23.9313 42.6303C23.4227 42.1247 22.6714 41.976 22.0085 42.2478C21.3485 42.5165 20.9185 43.1647 20.9185 43.8785V58.0287C20.9185 59.0047 21.7085 59.7971 22.6825 59.7971C23.6562 59.7971 24.4463 59.0047 24.4463 58.0287V48.1484L28.4889 52.202C29.1767 52.8917 30.2957 52.8917 30.9832 52.202L35.0297 48.1484V58.0287C35.0297 59.0047 35.8197 59.7971 36.7935 59.7971C37.7668 59.7971 38.5571 59.0047 38.5571 58.0287V43.878C38.5571 43.1646 38.1272 42.5163 37.4669 42.2447Z" fill="#4B4B4B"/>
<path d="M11.9857 43.2559C11.4712 41.873 9.19914 41.873 8.68087 43.2559L3.38862 57.4046C3.04692 58.3211 3.50908 59.3395 4.41926 59.6831C5.32919 60.0368 6.34864 59.5626 6.69071 58.6501L7.59055 56.259H13.0834L13.9757 58.6501C14.24 59.3578 14.9143 59.7966 15.6267 59.7966C15.8346 59.7966 16.0424 59.761 16.2478 59.6829C17.1576 59.3394 17.6199 58.3211 17.2779 57.4045L11.9857 43.2559ZM8.91306 52.7214L10.3349 48.9156L11.7569 52.7214H8.91306Z" fill="#4B4B4B"/>
</svg>
