<svg width="50" height="50" viewBox="0 0 50 50" fill="none" xmlns="http://www.w3.org/2000/svg">
<path d="M25.0293 26.6602L11.748 39.9414C10.8301 40.8594 9.3457 40.8594 8.4375 39.9414L6.23047 37.7344C5.3125 36.8164 5.3125 35.332 6.23047 34.4238L15.6445 25.0098L6.23047 15.5957C5.3125 14.6777 5.3125 13.1934 6.23047 12.2852L8.42773 10.0586C9.3457 9.14063 10.8301 9.14063 11.7383 10.0586L25.0195 23.3398C25.9473 24.2578 25.9473 25.7422 25.0293 26.6602V26.6602ZM43.7793 23.3398L30.498 10.0586C29.5801 9.14063 28.0957 9.14063 27.1875 10.0586L24.9805 12.2656C24.0625 13.1836 24.0625 14.668 24.9805 15.5762L34.3945 24.9902L24.9805 34.4043C24.0625 35.3223 24.0625 36.8066 24.9805 37.7148L27.1875 39.9219C28.1055 40.8398 29.5898 40.8398 30.498 39.9219L43.7793 26.6406C44.6973 25.7422 44.6973 24.2578 43.7793 23.3398Z" fill="#626262"/>
</svg>
