<svg width="77" height="77" viewBox="0 0 77 77" fill="none" xmlns="http://www.w3.org/2000/svg">
<path d="M47.749 58.0282C45.1548 60.1788 41.8687 61.3594 38.5 61.3594C35.1313 61.3594 31.8452 60.1713 29.251 58.0282C27.2214 56.3457 25.6856 54.1447 24.8069 51.6592H17.4453V66.7734H59.5547V51.6592H52.1931C51.3208 54.1256 49.7868 56.3438 47.749 58.0282Z" fill="black" fill-opacity="0.15"/>
<path d="M24.0625 37.6729H52.9375C53.2684 37.6729 53.5391 37.4021 53.5391 37.0713V33.4619C53.5391 33.1311 53.2684 32.8604 52.9375 32.8604H24.0625C23.7316 32.8604 23.4609 33.1311 23.4609 33.4619V37.0713C23.4609 37.4021 23.7316 37.6729 24.0625 37.6729Z" fill="#424242"/>
<path d="M62.5625 4.8125H14.4375C13.1065 4.8125 12.0312 5.88779 12.0312 7.21875V69.7812C12.0312 71.1122 13.1065 72.1875 14.4375 72.1875H62.5625C63.8935 72.1875 64.9688 71.1122 64.9688 69.7812V7.21875C64.9688 5.88779 63.8935 4.8125 62.5625 4.8125ZM59.5547 66.7734H17.4453V51.6592H24.8069C25.6792 54.1256 27.2132 56.3438 29.251 58.0282C31.8452 60.1713 35.1313 61.3594 38.5 61.3594C41.8687 61.3594 45.1548 60.1788 47.749 58.0282C49.7868 56.3438 51.3208 54.1256 52.1931 51.6592H59.5547V66.7734ZM59.5547 46.9219H48.3957L48.0047 48.7792C47.1023 53.2759 43.102 56.5469 38.5 56.5469C33.898 56.5469 29.8977 53.2759 28.9878 48.7792L28.5968 46.9219H17.4453V10.2266H59.5547V46.9219Z" fill="#424242"/>
<path d="M24.0625 25.6416H52.9375C53.2684 25.6416 53.5391 25.3709 53.5391 25.04V21.4307C53.5391 21.0998 53.2684 20.8291 52.9375 20.8291H24.0625C23.7316 20.8291 23.4609 21.0998 23.4609 21.4307V25.04C23.4609 25.3709 23.7316 25.6416 24.0625 25.6416Z" fill="#424242"/>
</svg>
