<svg width="75" height="75" viewBox="0 0 75 75" fill="none" xmlns="http://www.w3.org/2000/svg">
<path d="M46.8749 14.0625C46.8749 20.2172 45.4499 25.8187 43.1249 30C42.1405 29.2585 41.0189 28.7193 39.825 28.4136C38.631 28.1078 37.3884 28.0416 36.1687 28.2187C34.8562 23.6156 31.9031 18.6562 27.5531 14.3015C26.8145 13.5618 26.0467 12.8518 25.2515 12.1734C29.0698 10.3252 33.2579 9.36834 37.4999 9.37497C40.739 9.37497 43.8515 9.92341 46.7484 10.9312C46.8328 11.9578 46.8749 13.0031 46.8749 14.0625ZM46.8749 37.5C46.8749 37.8422 46.8562 38.1844 46.8187 38.5172C51.5906 38.4281 57.1312 36.8625 62.4328 33.8015C63.3457 33.2735 64.2371 32.709 65.1046 32.1094C63.6774 24.8024 59.4131 18.3587 53.2453 14.189C53.0552 15.1969 52.8284 16.1976 52.5656 17.189C50.9718 23.1375 48.1406 28.1859 44.8031 31.6218C46.1015 33.2297 46.8749 35.2781 46.8749 37.5ZM46.2328 40.9125C45.7805 42.0667 45.1045 43.1201 44.2438 44.0123C43.383 44.9044 42.3544 45.6176 41.2171 46.1109C43.6781 50.189 47.8031 54.1969 53.0999 57.2531C54.0374 57.7969 54.9843 58.2937 55.9359 58.739C58.7302 56.3192 61.0188 53.3711 62.6703 50.0641C64.3218 46.7571 65.3036 43.1563 65.5593 39.4687C64.5843 39.8109 63.5859 40.125 62.5546 40.4015C56.6296 41.9906 50.8687 42.0703 46.2328 40.9172V40.9125ZM37.4999 46.875C35.3906 46.875 33.4406 46.1765 31.875 45C29.5593 49.1719 28.1437 54.7594 28.1437 60.8953C28.1437 61.9734 28.1906 63.0375 28.2703 64.0734C31.2384 65.1033 34.3582 65.6278 37.4999 65.625C41.9062 65.625 46.0781 64.6125 49.7953 62.8031C48.9901 62.1192 48.2129 61.403 47.4656 60.6562C43.1296 56.3156 40.1765 51.3703 38.8593 46.7812C38.4187 46.8422 37.964 46.875 37.4999 46.875ZM28.1249 37.5C28.1249 37.125 28.1484 36.75 28.1906 36.3797C23.4093 36.4594 17.8546 38.025 12.5343 41.1C11.6246 41.625 10.7364 42.1864 9.87183 42.7828C10.5663 46.4126 11.969 49.8701 13.9999 52.9577C16.0307 56.0454 18.6498 58.7028 21.7078 60.7781C21.8981 59.7489 22.1295 58.7278 22.4015 57.7172C23.9953 51.7781 26.8078 46.739 30.1359 43.3031C28.8291 41.6515 28.1202 39.606 28.1249 37.5ZM12.4359 34.5375C18.375 32.9437 24.1453 32.8734 28.7859 34.0359C29.7046 31.7203 31.5187 29.864 33.8015 28.8797C31.3453 24.7828 27.2109 20.7562 21.8906 17.6859C20.9824 17.1614 20.0535 16.6735 19.1062 16.2234C16.3088 18.6378 14.0157 21.581 12.3586 24.8839C10.7016 28.1868 9.71309 31.7844 9.44995 35.4703C10.4156 35.1234 11.4093 34.814 12.4359 34.5375ZM37.4999 42.1875C38.7432 42.1875 39.9354 41.6936 40.8145 40.8145C41.6936 39.9355 42.1875 38.7432 42.1875 37.5C42.1875 36.2568 41.6936 35.0645 40.8145 34.1854C39.9354 33.3063 38.7432 32.8125 37.4999 32.8125C36.2567 32.8125 35.0645 33.3063 34.1854 34.1854C33.3063 35.0645 32.8125 36.2568 32.8125 37.5C32.8125 38.7432 33.3063 39.9355 34.1854 40.8145C35.0645 41.6936 36.2567 42.1875 37.4999 42.1875Z" fill="#424242"/>
<path d="M37.5 70.3125C28.7976 70.3125 20.4516 66.8555 14.2981 60.7019C8.14452 54.5484 4.6875 46.2024 4.6875 37.5C4.6875 28.7976 8.14452 20.4516 14.2981 14.2981C20.4516 8.14452 28.7976 4.6875 37.5 4.6875C46.2024 4.6875 54.5484 8.14452 60.7019 14.2981C66.8555 20.4516 70.3125 28.7976 70.3125 37.5C70.3125 46.2024 66.8555 54.5484 60.7019 60.7019C54.5484 66.8555 46.2024 70.3125 37.5 70.3125ZM37.5 75C47.4456 75 56.9839 71.0491 64.0165 64.0165C71.0491 56.9839 75 47.4456 75 37.5C75 27.5544 71.0491 18.0161 64.0165 10.9835C56.9839 3.95088 47.4456 0 37.5 0C27.5544 0 18.0161 3.95088 10.9835 10.9835C3.95088 18.0161 0 27.5544 0 37.5C0 47.4456 3.95088 56.9839 10.9835 64.0165C18.0161 71.0491 27.5544 75 37.5 75Z" fill="#424242"/>
</svg>
