<svg width="76" height="76" viewBox="0 0 76 76" fill="none" xmlns="http://www.w3.org/2000/svg">
<path d="M19 38C19 37.0643 19.1843 36.1378 19.5424 35.2734C19.9004 34.4089 20.4252 33.6235 21.0869 32.9619C21.7485 32.3002 22.5339 31.7754 23.3984 31.4174C24.2628 31.0593 25.1893 30.875 26.125 30.875C27.0607 30.875 27.9872 31.0593 28.8516 31.4174C29.7161 31.7754 30.5015 32.3002 31.1631 32.9619C31.8248 33.6235 32.3496 34.4089 32.7076 35.2734C33.0657 36.1378 33.25 37.0643 33.25 38C33.25 39.8897 32.4993 41.7019 31.1631 43.0381C29.8269 44.3743 28.0147 45.125 26.125 45.125C24.2353 45.125 22.4231 44.3743 21.0869 43.0381C19.7507 41.7019 19 39.8897 19 38V38ZM54.625 30.875C52.7353 30.875 50.9231 31.6257 49.5869 32.9619C48.2507 34.2981 47.5 36.1103 47.5 38C47.5 39.8897 48.2507 41.7019 49.5869 43.0381C50.9231 44.3743 52.7353 45.125 54.625 45.125C56.5147 45.125 58.3269 44.3743 59.6631 43.0381C60.9993 41.7019 61.75 39.8897 61.75 38C61.75 36.1103 60.9993 34.2981 59.6631 32.9619C58.3269 31.6257 56.5147 30.875 54.625 30.875Z" fill="#424242"/>
<path d="M0 7.125C0 6.49511 0.250223 5.89102 0.695621 5.44562C1.14102 5.00022 1.74511 4.75 2.375 4.75H7.125C7.75489 4.75 8.35898 5.00022 8.80438 5.44562C9.24978 5.89102 9.5 6.49511 9.5 7.125V19H73.625C74.2549 19 74.859 19.2502 75.3044 19.6956C75.7498 20.141 76 20.7451 76 21.375V54.625C76 55.2549 75.7498 55.859 75.3044 56.3044C74.859 56.7498 74.2549 57 73.625 57H9.5V68.875C9.5 69.5049 9.24978 70.109 8.80438 70.5544C8.35898 70.9998 7.75489 71.25 7.125 71.25C6.49511 71.25 5.89102 70.9998 5.44562 70.5544C5.00022 70.109 4.75 69.5049 4.75 68.875V9.5H2.375C1.74511 9.5 1.14102 9.24978 0.695621 8.80438C0.250223 8.35898 0 7.75489 0 7.125ZM26.125 26.125C22.9756 26.125 19.9551 27.3761 17.7281 29.6031C15.5011 31.8301 14.25 34.8506 14.25 38C14.25 41.1494 15.5011 44.1699 17.7281 46.3969C19.9551 48.6239 22.9756 49.875 26.125 49.875C29.2744 49.875 32.2949 48.6239 34.5219 46.3969C36.7489 44.1699 38 41.1494 38 38C38 34.8506 36.7489 31.8301 34.5219 29.6031C32.2949 27.3761 29.2744 26.125 26.125 26.125ZM42.75 38C42.75 41.1494 44.0011 44.1699 46.2281 46.3969C48.4551 48.6239 51.4756 49.875 54.625 49.875C57.7744 49.875 60.7949 48.6239 63.0219 46.3969C65.2489 44.1699 66.5 41.1494 66.5 38C66.5 34.8506 65.2489 31.8301 63.0219 29.6031C60.7949 27.3761 57.7744 26.125 54.625 26.125C51.4756 26.125 48.4551 27.3761 46.2281 29.6031C44.0011 31.8301 42.75 34.8506 42.75 38V38Z" fill="#424242"/>
<path d="M14.25 59.375H30.875V64.125C30.875 64.7549 30.6248 65.359 30.1794 65.8044C29.734 66.2498 29.1299 66.5 28.5 66.5H16.625C15.9951 66.5 15.391 66.2498 14.9456 65.8044C14.5002 65.359 14.25 64.7549 14.25 64.125V59.375ZM33.25 64.125V59.375H52.25V64.125C52.25 64.7549 51.9998 65.359 51.5544 65.8044C51.109 66.2498 50.5049 66.5 49.875 66.5H35.625C34.9951 66.5 34.391 66.2498 33.9456 65.8044C33.5002 65.359 33.25 64.7549 33.25 64.125Z" fill="#424242"/>
</svg>
