<svg width="72" height="72" viewBox="0 0 72 72" fill="none" xmlns="http://www.w3.org/2000/svg">
<path d="M51.75 9C52.3467 9 52.919 9.23705 53.341 9.65901C53.7629 10.081 54 10.6533 54 11.25V42.75C54 43.3467 53.7629 43.919 53.341 44.341C52.919 44.7629 52.3467 45 51.75 45C51.1533 45 50.581 44.7629 50.159 44.341C49.7371 43.919 49.5 43.3467 49.5 42.75V11.25C49.5 10.6533 49.7371 10.081 50.159 9.65901C50.581 9.23705 51.1533 9 51.75 9ZM60.75 9C61.3467 9 61.919 9.23705 62.341 9.65901C62.7629 10.081 63 10.6533 63 11.25V42.75C63 43.3467 62.7629 43.919 62.341 44.341C61.919 44.7629 61.3467 45 60.75 45C60.1533 45 59.581 44.7629 59.159 44.341C58.7371 43.919 58.5 43.3467 58.5 42.75V11.25C58.5 10.6533 58.7371 10.081 59.159 9.65901C59.581 9.23705 60.1533 9 60.75 9ZM15.75 45C15.1533 45 14.581 45.2371 14.159 45.659C13.7371 46.081 13.5 46.6533 13.5 47.25C13.5 47.8467 13.7371 48.419 14.159 48.841C14.581 49.2629 15.1533 49.5 15.75 49.5H42.75C43.3467 49.5 43.919 49.2629 44.341 48.841C44.7629 48.419 45 47.8467 45 47.25C45 46.6533 44.7629 46.081 44.341 45.659C43.919 45.2371 43.3467 45 42.75 45H15.75ZM15.75 54C15.1533 54 14.581 54.2371 14.159 54.659C13.7371 55.081 13.5 55.6533 13.5 56.25C13.5 56.8467 13.7371 57.419 14.159 57.841C14.581 58.2629 15.1533 58.5 15.75 58.5H42.75C43.3467 58.5 43.919 58.2629 44.341 57.841C44.7629 57.419 45 56.8467 45 56.25C45 55.6533 44.7629 55.081 44.341 54.659C43.919 54.2371 43.3467 54 42.75 54H15.75ZM22.5 13.5C21.3065 13.5 20.1619 13.9741 19.318 14.818C18.4741 15.6619 18 16.8065 18 18H15.75C15.1533 18 14.581 18.2371 14.159 18.659C13.7371 19.081 13.5 19.6533 13.5 20.25C13.5 20.8467 13.7371 21.419 14.159 21.841C14.581 22.2629 15.1533 22.5 15.75 22.5H18V27H15.75C15.1533 27 14.581 27.2371 14.159 27.659C13.7371 28.081 13.5 28.6533 13.5 29.25C13.5 29.8467 13.7371 30.419 14.159 30.841C14.581 31.2629 15.1533 31.5 15.75 31.5H18C18 32.6935 18.4741 33.8381 19.318 34.682C20.1619 35.5259 21.3065 36 22.5 36V38.25C22.5 38.8467 22.7371 39.419 23.159 39.841C23.581 40.2629 24.1533 40.5 24.75 40.5C25.3467 40.5 25.919 40.2629 26.341 39.841C26.7629 39.419 27 38.8467 27 38.25V36H31.5V38.25C31.5 38.8467 31.7371 39.419 32.159 39.841C32.581 40.2629 33.1533 40.5 33.75 40.5C34.3467 40.5 34.919 40.2629 35.341 39.841C35.7629 39.419 36 38.8467 36 38.25V36C37.1935 36 38.3381 35.5259 39.182 34.682C40.0259 33.8381 40.5 32.6935 40.5 31.5H42.75C43.3467 31.5 43.919 31.2629 44.341 30.841C44.7629 30.419 45 29.8467 45 29.25C45 28.6533 44.7629 28.081 44.341 27.659C43.919 27.2371 43.3467 27 42.75 27H40.5V22.5H42.75C43.3467 22.5 43.919 22.2629 44.341 21.841C44.7629 21.419 45 20.8467 45 20.25C45 19.6533 44.7629 19.081 44.341 18.659C43.919 18.2371 43.3467 18 42.75 18H40.5C40.5 16.8065 40.0259 15.6619 39.182 14.818C38.3381 13.9741 37.1935 13.5 36 13.5V11.25C36 10.6533 35.7629 10.081 35.341 9.65901C34.919 9.23705 34.3467 9 33.75 9C33.1533 9 32.581 9.23705 32.159 9.65901C31.7371 10.081 31.5 10.6533 31.5 11.25V13.5H27V11.25C27 10.6533 26.7629 10.081 26.341 9.65901C25.919 9.23705 25.3467 9 24.75 9C24.1533 9 23.581 9.23705 23.159 9.65901C22.7371 10.081 22.5 10.6533 22.5 11.25V13.5ZM22.5 18H36V31.5H22.5V18ZM51.75 49.5C51.1533 49.5 50.581 49.7371 50.159 50.159C49.7371 50.581 49.5 51.1533 49.5 51.75V56.25C49.5 56.8467 49.7371 57.419 50.159 57.841C50.581 58.2629 51.1533 58.5 51.75 58.5H60.75C61.3467 58.5 61.919 58.2629 62.341 57.841C62.7629 57.419 63 56.8467 63 56.25V51.75C63 51.1533 62.7629 50.581 62.341 50.159C61.919 49.7371 61.3467 49.5 60.75 49.5H51.75Z" fill="#424242"/>
<path d="M4.5 9C4.5 6.61305 5.44821 4.32387 7.13604 2.63604C8.82387 0.948212 11.1131 0 13.5 0L63 0C65.3869 0 67.6761 0.948212 69.364 2.63604C71.0518 4.32387 72 6.61305 72 9V58.5C72 60.8869 71.0518 63.1761 69.364 64.864C67.6761 66.5518 65.3869 67.5 63 67.5H13.5C11.1131 67.5 8.82387 66.5518 7.13604 64.864C5.44821 63.1761 4.5 60.8869 4.5 58.5V49.5H2.25C1.65326 49.5 1.08097 49.2629 0.65901 48.841C0.237053 48.419 0 47.8467 0 47.25V42.75C0 42.1533 0.237053 41.581 0.65901 41.159C1.08097 40.7371 1.65326 40.5 2.25 40.5H4.5V36H2.25C1.65326 36 1.08097 35.7629 0.65901 35.341C0.237053 34.919 0 34.3467 0 33.75V29.25C0 28.6533 0.237053 28.081 0.65901 27.659C1.08097 27.2371 1.65326 27 2.25 27H4.5V22.5H2.25C1.65326 22.5 1.08097 22.2629 0.65901 21.841C0.237053 21.419 0 20.8467 0 20.25V11.25C0 10.6533 0.237053 10.081 0.65901 9.65901C1.08097 9.23705 1.65326 9 2.25 9H4.5ZM9 58.5C9 59.6935 9.47411 60.8381 10.318 61.682C11.1619 62.5259 12.3065 63 13.5 63H63C64.1935 63 65.3381 62.5259 66.182 61.682C67.0259 60.8381 67.5 59.6935 67.5 58.5V9C67.5 7.80653 67.0259 6.66193 66.182 5.81802C65.3381 4.97411 64.1935 4.5 63 4.5H13.5C12.3065 4.5 11.1619 4.97411 10.318 5.81802C9.47411 6.66193 9 7.80653 9 9V58.5Z" fill="#424242"/>
</svg>
