<svg width="76" height="76" viewBox="0 0 76 76" fill="none" xmlns="http://www.w3.org/2000/svg">
<path d="M61.75 51.0625C61.75 49.095 60.155 47.5 58.1875 47.5C56.22 47.5 54.625 49.095 54.625 51.0625C54.625 53.03 56.22 54.625 58.1875 54.625C60.155 54.625 61.75 53.03 61.75 51.0625Z" fill="#424242"/>
<path d="M38.9832 33.25L35.625 29.8918L44.1394 21.375L47.5 24.7356L38.9832 33.25Z" fill="#424242"/>
<path d="M35.625 38C35.625 35.3766 33.4984 33.25 30.875 33.25C28.2516 33.25 26.125 35.3766 26.125 38C26.125 40.6234 28.2516 42.75 30.875 42.75C33.4984 42.75 35.625 40.6234 35.625 38Z" fill="#424242"/>
<path d="M14.25 38C14.25 42.4092 16.0016 46.6379 19.1194 49.7556C22.2371 52.8734 26.4658 54.625 30.875 54.625C35.2842 54.625 39.5129 52.8734 42.6306 49.7556C45.7484 46.6379 47.5 42.4092 47.5 38L42.75 38C42.75 40.3487 42.0535 42.6446 40.7487 44.5974C39.4439 46.5502 37.5892 48.0723 35.4194 48.9711C33.2495 49.8699 30.8618 50.105 28.5583 49.6468C26.2548 49.1886 24.1389 48.0576 22.4781 46.3969C20.8174 44.7361 19.6864 42.6202 19.2282 40.3167C18.77 38.0132 19.0051 35.6255 19.9039 33.4556C20.8027 31.2858 22.3248 29.4311 24.2776 28.1263C26.2304 26.8215 28.5263 26.125 30.875 26.125L30.875 21.375C26.4658 21.375 22.2371 23.1266 19.1193 26.2444C16.0016 29.3621 14.25 33.5908 14.25 38Z" fill="#424242"/>
<path d="M4.75 14.25L4.75 61.75C4.75 63.0098 5.25044 64.218 6.14124 65.1088C7.03204 65.9996 8.24022 66.5 9.5 66.5L66.5 66.5C67.7598 66.5 68.968 65.9996 69.8588 65.1088C70.7496 64.218 71.25 63.0098 71.25 61.75L71.25 14.25C71.25 12.9902 70.7496 11.782 69.8588 10.8912C68.968 10.0004 67.7598 9.5 66.5 9.5L9.5 9.5C8.24022 9.5 7.03204 10.0004 6.14124 10.8912C5.25044 11.782 4.75 12.9902 4.75 14.25ZM66.5 14.25L66.5 61.75L9.5 61.75L9.5 14.25L66.5 14.25Z" fill="#424242"/>
</svg>
