<svg width="59" height="59" viewBox="0 0 59 59" fill="none" xmlns="http://www.w3.org/2000/svg">
<path d="M29.6176 4.17871C15.4637 4.17871 3.99072 15.6547 3.99072 29.8056C3.99072 43.9585 15.4637 55.4304 29.6176 55.4304C43.7705 55.4304 55.2445 43.9585 55.2445 29.8056C55.2445 15.6546 43.7705 4.17871 29.6176 4.17871ZM44.3412 35.2576C43.6158 37.7569 42.2456 40.0827 40.3247 41.8479C38.5075 43.5257 36.2314 44.6752 33.8257 45.2289C31.164 45.8346 28.349 45.8508 25.7046 45.1414C23.609 44.5841 21.6323 43.5852 19.9366 42.2329C18.1392 40.8044 16.6573 38.9821 15.6238 36.9324C14.0334 33.792 13.5443 30.1158 14.2461 26.6679C14.5251 25.284 14.9895 23.9386 15.6256 22.678C17.4528 19.0199 20.7483 16.1257 24.6184 14.8007C28.0526 13.6121 31.8998 13.6388 35.3112 14.8943C37.206 15.59 38.9402 16.6906 40.4195 18.0595C39.9247 18.597 39.3878 19.0975 38.8769 19.6207C37.9028 20.5929 36.9319 21.5688 35.9559 22.5391C34.9906 21.6172 33.8119 20.9166 32.5334 20.5284C31.0292 20.0733 29.4092 20.0107 27.8727 20.3387C26.0783 20.7231 24.4129 21.6606 23.1319 22.9719C22.0934 24.0234 21.3028 25.3156 20.828 26.7143C20.1435 28.699 20.1484 30.9094 20.8249 32.8959C21.4864 34.849 22.7748 36.5844 24.4631 37.7705C25.519 38.5151 26.7293 39.0433 27.9973 39.2963C29.2441 39.5487 30.5356 39.5214 31.7856 39.3082C33.0275 39.0906 34.2322 38.633 35.2806 37.928C36.9485 36.8139 38.1246 35.004 38.4589 33.025C35.5757 33.0237 32.692 33.0243 29.8083 33.025C29.8046 30.9603 29.8077 28.895 29.807 26.8297C34.7864 26.8291 39.7657 26.8279 44.7451 26.8303C45.2415 29.6211 45.1324 32.5314 44.3412 35.2576Z" fill="#4B4B4B"/>
</svg>
