<svg width="86" height="86" viewBox="0 0 86 86" fill="none" xmlns="http://www.w3.org/2000/svg">
<g clip-path="url(#clip0_1354_92)">
<path d="M25.0834 86H32.2501V78.8334H25.0834V86ZM39.4167 86H46.5834V78.8334H39.4167V86ZM46.5834 7.16669H39.4167V43H46.5834V7.16669ZM59.3401 15.91L54.1442 21.1059C57.3017 23.0071 59.9144 25.692 61.7288 28.9002C63.5432 32.1083 64.4978 35.731 64.5001 39.4167C64.5001 51.2775 54.8609 60.9167 43.0001 60.9167C31.1392 60.9167 21.5001 51.2775 21.5001 39.4167C21.5001 31.6409 25.6567 24.8684 31.8201 21.07L26.6601 15.91C22.8542 18.5359 19.7436 22.0475 17.5963 26.1424C15.4489 30.2373 14.3292 34.7929 14.3334 39.4167C14.3334 55.255 27.1617 68.0834 43.0001 68.0834C58.8384 68.0834 71.6667 55.255 71.6667 39.4167C71.6667 29.67 66.7934 21.07 59.3401 15.91V15.91ZM53.7501 86H60.9167V78.8334H53.7501V86Z" fill="#424242"/>
</g>
<defs>
<clipPath id="clip0_1354_92">
<rect width="86" height="86" fill="white"/>
</clipPath>
</defs>
</svg>
