<svg width="79" height="53" viewBox="0 0 79 53" fill="none" xmlns="http://www.w3.org/2000/svg">
<path fill-rule="evenodd" clip-rule="evenodd" d="M55.3522 42.4511C54.647 42.7103 53.9549 42.8799 53.2571 43.1532C52.2131 43.5617 50.1081 44.1229 48.9443 44.3713C47.4459 44.691 46.0208 45.0965 44.4507 45.4093C42.8315 45.7318 41.3891 45.9055 39.7079 46.1992C38.1529 46.4711 36.312 46.5651 34.6528 46.6787C32.9202 46.7974 31.1219 46.8733 29.2468 46.8733H28.856C22.1809 46.8733 15.8128 45.8287 11.3559 43.6106C7.06892 41.4768 3.06148 37.5221 3.06148 31.1869V30.6036C3.06148 27.6234 3.98144 25.3337 4.84634 23.1754C5.22595 22.228 5.94183 21.0205 6.48762 20.2065C6.82865 19.6979 7.10562 19.3278 7.46365 18.8443C7.78378 18.4123 8.2825 17.9468 8.53297 17.5748V15.5006C7.4944 16.1926 6.40283 17.5542 5.52178 18.4676C4.52213 19.5039 3.78093 20.6599 2.95715 21.8788C1.73422 23.6879 0 27.898 0 30.8626V32.937C0 36.5965 1.45861 39.8496 2.9439 42.0639C4.6251 44.5708 6.86501 46.0539 9.43185 47.6642C11.457 48.9347 15.5465 50.3441 18.3089 50.887C21.7143 51.5561 25.1512 52.0588 29.247 52.0588H31.2661C43.8538 52.0588 56.6429 48.4219 64.8773 44.0862V38.1876C62.6493 39.3608 59.9061 40.9098 57.334 41.7003C56.787 41.8688 55.925 42.2402 55.3522 42.4511ZM77.8137 15.3972C77.691 14.7192 77.4441 13.8536 77.2084 13.2768C76.62 11.8369 76.1313 10.8634 75.2516 9.71443C73.6248 7.58862 71.6868 6.05243 69.2635 4.71864C64.815 2.27038 58.0439 0.787109 51.1331 0.787109H50.5468C43.4159 0.787109 37.5182 1.96719 31.944 3.53568C30.4717 3.94995 29.2743 4.37759 27.903 4.82973C26.7678 5.20393 25.1058 5.83058 24.0783 6.33887C22.8603 6.94134 21.6455 7.45893 20.4532 8.04669C19.8216 8.35832 17.3963 9.83482 17.001 9.92664V11.4821C17.5385 11.3577 19.5181 10.2694 20.279 9.94727C21.3347 9.50053 22.6599 8.83736 23.7231 8.51338C24.2052 8.36644 25.002 8.0663 25.4803 7.86356C26.0609 7.6172 26.6677 7.46654 27.2847 7.26092C28.4607 6.86863 29.7754 6.42595 31.0192 6.11584C33.6987 5.44726 36.0598 4.90447 38.991 4.39027C41.4885 3.95232 45.0011 3.50964 47.8116 3.50964H50.7427C56.4496 3.50964 62.6279 4.81367 66.2882 6.83769C68.5091 8.06596 70.0015 9.09928 71.5332 11.0171C72.6876 12.4625 74.1271 15.3455 74.1271 17.8996V19.0016C74.1271 21.6937 72.7216 24.5887 71.5485 26.1585C70.837 27.1103 70.1322 27.9585 69.259 28.7416C68.8345 29.1223 66.8522 30.6881 66.3754 30.7985V35.0765C67.2936 35.0008 70.0566 33.2304 70.7667 32.7054C72.0749 31.737 73.247 30.6232 74.2455 29.3611C75.3811 27.9262 75.9935 26.8744 76.8193 25.1162C77.1933 24.3205 77.4094 23.5029 77.6818 22.6039C77.7923 22.239 78.1579 19.6619 78.1656 19.6499V17.7701C78.1432 17.7351 77.8623 15.6666 77.8137 15.3972ZM57.2558 28.4648V26.7145C57.2558 24.6529 56.515 22.6675 55.6096 21.482C54.7502 20.3567 53.0068 19.066 51.0678 19.066H49.8303C47.7815 19.066 45.9277 20.3457 44.9275 21.447C43.9063 22.5714 43.056 24.7128 43.056 26.8442V27.6222C43.056 32.0786 45.8036 35.3354 50.2862 35.3354H51.1329C52.4897 35.3354 53.4588 35.0084 54.4297 34.5978C55.4871 34.1506 56.0248 33.3892 56.8164 32.855L54.2593 30.4741C53.7556 31.2226 52.3602 31.9649 51.0676 31.9649H50.3511C48.6556 31.9649 47.0943 30.5305 47.0943 28.9184V28.4646H57.2558V28.4648ZM47.0945 25.2885C47.0945 23.8276 48.5259 22.3717 50.0255 22.3717H50.3512C52.0544 22.3717 53.2175 23.809 53.2175 25.4182V25.7424H47.0945V25.2885ZM32.0476 35.0762V23.9921C32.0476 21.3621 30.249 19.325 27.6182 19.325H19.02V35.076H22.9935V22.566H26.5759C27.3654 22.566 28.0091 23.1742 28.0091 23.9274V35.0762H32.0476ZM34.9788 14.9825V30.4091C34.9788 33.0711 36.7181 35.0762 39.343 35.0762H42.0789V31.7055H40.0596C39.4615 31.7055 39.0175 31.0168 39.0175 30.4091V22.566H42.0789V19.325H39.0175V14.9823H34.9788V14.9825ZM63.6395 34.9467V12.7787H59.6009V31.252C59.6009 32.328 60.2558 33.3038 60.8212 33.8621C61.1248 34.1618 61.6043 34.4091 62.049 34.585C62.6711 34.8314 62.9928 34.7967 63.6395 34.9467ZM15.4376 35.2707V19.325L11.414 19.3256L11.318 23.0195L11.3338 30.863C11.3338 33.5201 12.8991 35.2144 15.4376 35.2707ZM15.4376 13.297H11.399V17.1215H15.4376V13.297ZM67.5681 14.5246H67.7327C67.8314 14.5246 67.9067 14.5442 67.958 14.5842C68.0325 14.6382 68.13 14.7728 68.2513 14.9869L68.4058 15.2598H68.749L68.5368 14.9211C68.435 14.7604 68.3494 14.6461 68.2794 14.5777C68.2427 14.5421 68.1927 14.5114 68.1315 14.486C68.2814 14.4743 68.4022 14.4219 68.493 14.3281C68.5837 14.2341 68.6289 14.1242 68.6289 13.9975C68.6289 13.9081 68.6019 13.8237 68.5475 13.7435C68.493 13.6641 68.4204 13.6081 68.329 13.5761C68.2376 13.5442 68.0897 13.5288 67.8851 13.5288H67.2874V15.2598H67.5681V14.5246ZM67.5681 13.7631H67.8872C68.0246 13.7631 68.1183 13.7726 68.1694 13.7931C68.2201 13.8127 68.2595 13.8433 68.2879 13.8832C68.3164 13.9239 68.3312 13.9698 68.3312 14.0207C68.3312 14.1008 68.3011 14.1649 68.2418 14.2129C68.1825 14.2609 68.0715 14.2858 67.9091 14.2858H67.5681V13.7631ZM67.1922 15.7664C67.4483 15.9082 67.7166 15.9789 67.9968 15.9789C68.2768 15.9789 68.5446 15.9082 68.8014 15.7664C69.0574 15.6252 69.2573 15.4263 69.399 15.1701C69.5415 14.9147 69.6127 14.6483 69.6127 14.3709C69.6127 14.0908 69.5402 13.8213 69.3963 13.5638C69.252 13.3054 69.0503 13.1074 68.7918 12.9684C68.5331 12.8303 68.2681 12.7609 67.9968 12.7609C67.7252 12.7609 67.4598 12.8301 67.2017 12.9684C66.9428 13.1074 66.7407 13.3054 66.5959 13.5638C66.451 13.8213 66.3788 14.0908 66.3788 14.3709C66.3788 14.6483 66.4498 14.9147 66.5931 15.1701C66.7358 15.4263 66.9353 15.6252 67.1922 15.7664ZM66.6466 14.3709C66.6466 14.1373 66.7071 13.9131 66.8286 13.6977C66.9501 13.483 67.1181 13.3171 67.3334 13.2013C67.5484 13.0854 67.7691 13.0273 67.9968 13.0273C68.2221 13.0273 68.443 13.0856 68.6588 13.2013C68.8746 13.3169 69.0428 13.483 69.1636 13.6977C69.2843 13.9131 69.3443 14.1375 69.3443 14.3709C69.3443 14.6023 69.285 14.8245 69.1665 15.0369C69.0481 15.2493 68.8819 15.4153 68.6676 15.534C68.4534 15.6526 68.2296 15.7124 67.9969 15.7124C67.7636 15.7124 67.5405 15.6526 67.3263 15.534C67.1118 15.4153 66.9453 15.2493 66.8258 15.0369C66.7064 14.8244 66.6466 14.6023 66.6466 14.3709Z" fill="#4B4B4B"/>
</svg>
