<svg width="155" height="122" viewBox="0 0 155 122" fill="none" xmlns="http://www.w3.org/2000/svg">
<path d="M111.884 24.2876C91.9147 9.80731 64.9964 9.45035 44.6499 23.396L36.1969 29.1897C24.9187 36.9199 18.1641 49.7027 18.1326 63.3758C18.0974 78.6168 26.4071 92.6544 39.7858 99.955L49.9113 105.48C67.568 115.115 88.9474 114.953 106.456 105.052L114.369 100.578C127.703 93.0376 135.962 78.9176 135.997 63.5988C136.028 49.9152 129.484 37.0496 118.406 29.0169L111.884 24.2876Z" fill="url(#paint0_linear)"/>
<rect x="1.5" y="38.5" width="152" height="53" rx="26.5" fill="white" stroke="#535353" stroke-width="3"/>
<path d="M20.1091 82V47.64H26.9491V59.92H30.1891V47.64H37.0291V82H30.1891V66.4H26.9491V82H20.1091ZM39.47 82V47.64H53.23V54.28H46.47V60.96H52.95V67.44H46.47V75.32H53.67V82H39.47ZM54.3544 82L58.0344 63.76L55.1144 47.6H61.8344L63.6344 59.44L65.1944 47.6H71.9544L68.9944 63.76L72.6744 82H65.7144L63.5544 68.56L61.3544 82H54.3544ZM73.2094 82L76.5294 47.64H88.1694L91.4494 82H84.9294L84.4494 76.44H80.2894L79.8894 82H73.2094ZM80.8094 70.96H83.9294L82.4094 53.48H82.0894L80.8094 70.96ZM101.718 47.64H110.798C113.545 47.64 115.505 48.5333 116.678 50.32C117.852 52.08 118.438 54.6667 118.438 58.08C118.438 61.4933 117.918 64.0667 116.878 65.8C115.838 67.5333 113.972 68.4 111.278 68.4H108.478V82H101.718V47.64ZM108.878 62.2C109.705 62.2 110.305 62.0533 110.678 61.76C111.078 61.44 111.332 61 111.438 60.44C111.572 59.8533 111.638 59.0267 111.638 57.96C111.638 56.52 111.478 55.48 111.158 54.84C110.838 54.2 110.198 53.88 109.238 53.88H108.478V62.2H108.878ZM127.986 82.32C125.479 82.32 123.466 81.5333 121.946 79.96C120.452 78.3867 119.706 76.2267 119.706 73.48V57.64C119.706 54.2267 120.386 51.6533 121.746 49.92C123.106 48.1867 125.239 47.32 128.146 47.32C130.679 47.32 132.719 48.0133 134.266 49.4C135.812 50.7867 136.586 52.7867 136.586 55.4V61.32H129.746V56.24C129.746 55.2533 129.626 54.5733 129.386 54.2C129.146 53.8267 128.732 53.64 128.146 53.64C127.532 53.64 127.106 53.8533 126.866 54.28C126.652 54.7067 126.546 55.3333 126.546 56.16V73.4C126.546 74.3067 126.679 74.9733 126.946 75.4C127.212 75.8 127.612 76 128.146 76C129.212 76 129.746 75.1333 129.746 73.4V67.2H136.666V73.68C136.666 79.44 133.772 82.32 127.986 82.32Z" fill="#158AFF"/>
<defs>
<linearGradient id="paint0_linear" x1="42" y1="27" x2="136" y2="114" gradientUnits="userSpaceOnUse">
<stop stop-color="#16BE85"/>
<stop offset="1" stop-color="#CFFBEC"/>
</linearGradient>
</defs>
</svg>
