<svg width="78" height="78" viewBox="0 0 78 78" fill="none" xmlns="http://www.w3.org/2000/svg">
<path fill-rule="evenodd" clip-rule="evenodd" d="M29.9444 22.2569C35.4652 22.2569 38.7403 26.5521 38.7403 26.5521L34.2537 30.3349C32.2359 26.9725 31.5614 25.4902 28.206 25.0848V34.6409C28.9668 34.8962 29.8109 35.0484 30.7539 35.0484C37.302 35.0484 43.4093 26.5658 43.4093 26.5658C43.4093 26.5658 37.7547 18.8892 29.1357 19.16C28.8209 19.1699 28.5117 19.1862 28.2058 19.208V22.3594C28.7697 22.2991 29.3437 22.2569 29.9444 22.2569ZM13.9215 26.9687C13.9215 26.9687 18.6882 19.935 28.206 19.208V16.6566C17.6641 17.5025 8.53491 26.4308 8.53491 26.4308C8.53491 26.4308 13.705 41.3788 28.206 42.7473V40.0348C17.5651 38.696 13.9215 26.9687 13.9215 26.9687ZM28.206 11.9495V16.6566C28.5153 16.6321 28.825 16.6126 29.1359 16.6011C41.1215 16.1974 48.9305 26.4308 48.9305 26.4308C48.9305 26.4308 39.961 37.3375 30.6171 37.3375C29.761 37.3375 28.9593 37.2583 28.206 37.125V40.0348C28.8501 40.1166 29.5174 40.1649 30.2139 40.1649C38.9097 40.1649 45.1983 35.7245 51.2874 30.4685C52.2963 31.277 56.4298 33.2435 57.28 34.1054C51.4895 38.9521 37.997 42.8586 30.3476 42.8586C29.6106 42.8586 28.9014 42.8141 28.206 42.7474V46.8365H61.2564V11.9495H28.206ZM22.1985 27.8241C22.1985 27.8241 24.8282 24.6795 28.1935 25.0836C28.1978 25.0836 28.201 25.085 28.2061 25.085V22.3594C21.7926 23.0527 17.9315 27.331 17.9315 27.331C17.9315 27.331 20.1636 35.6913 28.2061 37.1252V34.6409C23.6718 33.1175 22.1985 27.8241 22.1985 27.8241Z" fill="#4B4B4B"/>
<path fill-rule="evenodd" clip-rule="evenodd" d="M33.1052 66.203H36.8098V53.0858H33.1038L33.1052 66.203ZM24.6705 63.4821L21.7079 53.0867L17.7089 53.0862L21.9399 66.2032H27.2794L31.5437 53.0862H27.7625L24.6705 63.4821ZM10.6133 53.0676H3.96094V66.2032H7.69854V56.2292L10.594 56.2303C11.5531 56.2303 12.2362 56.469 12.6985 56.9621C13.2844 57.5868 13.5236 58.5933 13.5236 60.4354V66.2032H17.1449V58.946C17.1449 53.7661 13.8433 53.0676 10.6133 53.0676ZM68.8266 53.0896L63.8779 53.0908L58.7051 66.1986H62.3578L63.1765 63.8817H69.2984L70.0732 66.1986H74.0391L68.8266 53.0896ZM63.9678 61.6229L66.2828 55.4821L68.5268 61.6229H63.9678ZM53.4928 66.203H57.1979V53.0865L53.4919 53.0861L53.4928 66.203ZM44.268 53.0862H39.0689V66.2032H45.0776C48.2793 66.2032 49.324 65.6706 50.4538 64.477C51.2527 63.6389 51.769 61.7992 51.769 59.7889C51.769 57.9451 51.3319 56.3002 50.5699 55.276C49.1973 53.4441 47.2202 53.0862 44.268 53.0862ZM44.3363 63.4034H42.7434V55.9422H44.3363C46.6472 55.9422 48.1417 56.9801 48.1417 59.6723C48.1417 62.3655 46.6472 63.4034 44.3363 63.4034Z" fill="#4B4B4B"/>
</svg>
