<svg width="30" height="30" viewBox="0 0 30 30" fill="none" xmlns="http://www.w3.org/2000/svg">
<path d="M26.25 12.1875H17.8125V3.75C17.8125 2.71465 16.9729 1.875 15.9375 1.875H14.0625C13.0271 1.875 12.1875 2.71465 12.1875 3.75V12.1875H3.75C2.71465 12.1875 1.875 13.0271 1.875 14.0625V15.9375C1.875 16.9729 2.71465 17.8125 3.75 17.8125H12.1875V26.25C12.1875 27.2854 13.0271 28.125 14.0625 28.125H15.9375C16.9729 28.125 17.8125 27.2854 17.8125 26.25V17.8125H26.25C27.2854 17.8125 28.125 16.9729 28.125 15.9375V14.0625C28.125 13.0271 27.2854 12.1875 26.25 12.1875Z" fill="#158AFF"/>
</svg>
