<svg width="34" height="34" viewBox="0 0 34 34" fill="none" xmlns="http://www.w3.org/2000/svg">
<path d="M29.75 13.8125H20.1875V4.25C20.1875 3.0766 19.2359 2.125 18.0625 2.125H15.9375C14.7641 2.125 13.8125 3.0766 13.8125 4.25V13.8125H4.25C3.0766 13.8125 2.125 14.7641 2.125 15.9375V18.0625C2.125 19.2359 3.0766 20.1875 4.25 20.1875H13.8125V29.75C13.8125 30.9234 14.7641 31.875 15.9375 31.875H18.0625C19.2359 31.875 20.1875 30.9234 20.1875 29.75V20.1875H29.75C30.9234 20.1875 31.875 19.2359 31.875 18.0625V15.9375C31.875 14.7641 30.9234 13.8125 29.75 13.8125Z" fill="#A6A6A6"/>
</svg>
