<svg width="75" height="75" viewBox="0 0 75 75" fill="none" xmlns="http://www.w3.org/2000/svg">
<path d="M73.0343 24.2559C74.0423 24.2559 74.5464 23.7103 74.5464 22.619C74.5464 21.5278 74.0423 20.9821 73.0343 20.9821H66.5323V17.8571C66.5323 15.1786 65.5998 12.9216 63.7349 11.0863C61.87 9.25098 59.5766 8.33332 56.8548 8.33332H53.6794V1.93451C53.6794 0.942443 53.125 0.446411 52.0161 0.446411C50.9072 0.446411 50.3528 0.942443 50.3528 1.93451V8.33332H44.002V1.93451C44.002 0.942443 43.4476 0.446411 42.3387 0.446411C41.2298 0.446411 40.6754 0.942443 40.6754 1.93451V8.33332H34.3246V1.93451C34.3246 0.942443 33.7701 0.446411 32.6613 0.446411C31.5524 0.446411 30.998 0.942443 30.998 1.93451V8.33332H24.6472V1.93451C24.6472 0.942443 24.0927 0.446411 22.9839 0.446411C21.875 0.446411 21.3206 0.942443 21.3206 1.93451V8.33332H18.1451C15.4234 8.33332 13.13 9.25098 11.2651 11.0863C9.40019 12.9216 8.46773 15.1786 8.46773 17.8571V20.9821H1.96571C0.957646 20.9821 0.453613 21.5278 0.453613 22.619C0.453613 23.7103 0.957646 24.2559 1.96571 24.2559H8.46773V30.5059H1.96571C0.957646 30.5059 0.453613 31.0516 0.453613 32.1428C0.453613 33.2341 0.957646 33.7797 1.96571 33.7797H8.46773V40.0297H1.96571C0.957646 40.0297 0.453613 40.5754 0.453613 41.6667C0.453613 42.7579 0.957646 43.3036 1.96571 43.3036H8.46773V49.5536H1.96571C0.957646 49.5536 0.453613 50.0992 0.453613 51.1905C0.453613 52.2817 0.957646 52.8274 1.96571 52.8274H8.46773V55.9524C8.46773 58.6309 9.40019 60.8879 11.2651 62.7232C13.13 64.5585 15.4234 65.4762 18.1451 65.4762H21.3206V71.875C21.3206 72.8671 21.875 73.3631 22.9839 73.3631C24.0927 73.3631 24.6472 72.8671 24.6472 71.875V65.4762H30.998V71.875C30.998 72.8671 31.5524 73.3631 32.6613 73.3631C33.7701 73.3631 34.3246 72.8671 34.3246 71.875V65.4762H40.6754V71.875C40.6754 72.8671 41.2298 73.3631 42.3387 73.3631C43.4476 73.3631 44.002 72.8671 44.002 71.875V65.4762H50.3528V71.875C50.3528 72.8671 50.9072 73.3631 52.0161 73.3631C53.125 73.3631 53.6794 72.8671 53.6794 71.875V65.4762H56.8548C59.5766 65.4762 61.87 64.5585 63.7349 62.7232C65.5998 60.8879 66.5323 58.6309 66.5323 55.9524V52.8274H73.0343C74.0423 52.8274 74.5464 52.2817 74.5464 51.1905C74.5464 50.0992 74.0423 49.5536 73.0343 49.5536H66.5323V43.3036H73.0343C74.0423 43.3036 74.5464 42.7579 74.5464 41.6667C74.5464 40.5754 74.0423 40.0297 73.0343 40.0297H66.5323V33.7797H73.0343C74.0423 33.7797 74.5464 33.2341 74.5464 32.1428C74.5464 31.0516 74.0423 30.5059 73.0343 30.5059H66.5323V24.2559H73.0343ZM60.0302 55.9524C60.0302 58.0357 58.9718 59.0774 56.8548 59.0774H18.1451C16.0282 59.0774 14.9697 58.0357 14.9697 55.9524V17.8571C14.9697 15.7738 16.0282 14.7321 18.1451 14.7321H56.8548C58.9718 14.7321 60.0302 15.7738 60.0302 17.8571V55.9524ZM50.3528 20.9821H24.6472C22.4294 20.9821 21.3206 22.0734 21.3206 24.2559V49.5536C21.3206 51.7361 22.4294 52.8274 24.6472 52.8274H50.3528C52.5706 52.8274 53.6794 51.7361 53.6794 49.5536V24.2559C53.6794 22.0734 52.5706 20.9821 50.3528 20.9821ZM47.1774 46.4286H27.8226V27.3809H47.1774V46.4286Z" fill="#424242"/>
</svg>
