<svg width="79" height="69" viewBox="0 0 79 69" fill="none" xmlns="http://www.w3.org/2000/svg">
<path d="M69.125 6.6228H9.875C7.09766 6.6228 4.75749 7.54691 2.85449 9.39512C0.951497 11.2433 0 13.6049 0 16.4799V46.0514C0 47.7969 0.642904 49.3114 1.92871 50.5949C3.21452 51.8784 4.7832 52.5201 6.63477 52.5201H72.3652C74.2168 52.5201 75.7855 51.8784 77.0713 50.5949C78.3571 49.3114 79 47.7969 79 46.0514V16.4799C79 13.6049 78.0485 11.2433 76.1455 9.39512C74.2425 7.54691 71.9023 6.6228 69.125 6.6228ZM65.8848 46.0514V36.1942H62.4902V46.0514H59.25V36.1942H56.0098V46.0514H52.6152V36.1942H49.375V46.0514H42.7402V36.1942C42.7402 33.9353 41.6602 32.8058 39.5 32.8058C37.3398 32.8058 36.2598 33.9353 36.2598 36.1942V46.0514H32.8652V36.1942H29.625V46.0514H26.3848V36.1942H22.9902V46.0514H19.75V36.1942H16.5098V46.0514H13.1152V36.1942H9.875V46.0514H6.63477V16.4799C6.63477 14.221 7.71484 13.0916 9.875 13.0916H69.125C71.2852 13.0916 72.3652 14.221 72.3652 16.4799V46.0514H65.8848ZM16.5098 16.4799H13.1152C10.9551 16.4799 9.875 17.5581 9.875 19.7143V29.5715C9.875 31.7277 10.9551 32.8058 13.1152 32.8058H16.5098C18.6699 32.8058 19.75 31.7277 19.75 29.5715V19.7143C19.75 17.5581 18.6699 16.4799 16.5098 16.4799ZM29.625 16.4799H26.3848C24.1217 16.4799 22.9902 17.5581 22.9902 19.7143V29.5715C22.9902 31.7277 24.1217 32.8058 26.3848 32.8058H29.625C31.7852 32.8058 32.8652 31.7277 32.8652 29.5715V19.7143C32.8652 17.5581 31.7852 16.4799 29.625 16.4799ZM52.6152 16.4799H49.375C47.2148 16.4799 46.1348 17.5581 46.1348 19.7143V29.5715C46.1348 31.7277 47.2148 32.8058 49.375 32.8058H52.6152C54.8783 32.8058 56.0098 31.7277 56.0098 29.5715V19.7143C56.0098 17.5581 54.8783 16.4799 52.6152 16.4799ZM65.8848 16.4799H62.4902C60.3301 16.4799 59.25 17.5581 59.25 19.7143V29.5715C59.25 31.7277 60.3301 32.8058 62.4902 32.8058H65.8848C68.0449 32.8058 69.125 31.7277 69.125 29.5715V19.7143C69.125 17.5581 68.0449 16.4799 65.8848 16.4799Z" fill="#424242"/>
</svg>
