<svg width="28" height="25" viewBox="0 0 28 25" fill="none" xmlns="http://www.w3.org/2000/svg">
<g clip-path="url(#clip0_428_13)">
<path d="M23.8596 19.0204L19.3233 14.7368C19.1186 14.5435 18.841 14.4361 18.5498 14.4361H17.8082C19.064 12.9194 19.8102 11.0118 19.8102 8.93663C19.8102 4 15.5742 0 10.3463 0C5.11834 0 0.882324 4 0.882324 8.93663C0.882324 13.8733 5.11834 17.8733 10.3463 17.8733C12.5439 17.8733 14.5641 17.1686 16.1702 15.9828V16.6831C16.1702 16.9581 16.284 17.2202 16.4887 17.4135L21.025 21.6971C21.4527 22.101 22.1443 22.101 22.5675 21.6971L23.8551 20.4812C24.2828 20.0773 24.2828 19.4243 23.8596 19.0204ZM10.3463 14.4361C7.12943 14.4361 4.5223 11.9785 4.5223 8.93663C4.5223 5.89903 7.12488 3.43716 10.3463 3.43716C13.5631 3.43716 16.1702 5.89474 16.1702 8.93663C16.1702 11.9742 13.5676 14.4361 10.3463 14.4361Z" fill="white"/>
</g>
<defs>
<clipPath id="clip0_428_13">
<rect width="26.4706" height="25" fill="white" transform="translate(0.882324)"/>
</clipPath>
</defs>
</svg>
