<svg width="316" height="139" viewBox="0 0 316 139" fill="none" xmlns="http://www.w3.org/2000/svg">
<g clip-path="url(#clip0_527_605)">
<path d="M94.0109 114.448C92.9245 122.956 88.9297 130.74 84.6681 138.238C84.5272 138.493 84.3822 138.745 84.2336 139H39.9402C39.0444 138.768 38.1601 138.512 37.2796 138.238C32.2767 136.716 27.5537 134.393 23.294 131.361C6.99847 119.626 0.727947 97.4519 3.5602 77.5827C5.32131 65.2383 10.7416 52.6348 21.2965 45.9863C26.8695 42.4697 34.028 41.3267 40.4433 42.6335C40.6112 42.664 40.7789 42.7021 40.9503 42.7364C46.4698 43.9785 51.387 47.0646 54.185 52.0366C59.2165 60.9711 56.2205 72.0391 53.7467 81.9833C51.2804 91.9274 49.9423 103.83 57.101 111.164C54.7376 104.211 57.0705 95.9164 62.7159 91.2149C66.9813 87.6678 72.9201 86.3381 78.3367 87.4392C78.855 87.5497 79.366 87.6754 79.869 87.8278C81.0851 88.1837 82.2575 88.6745 83.3645 89.2908C91.8076 94.0038 95.2269 104.859 94.0109 114.448Z" fill="#F2F2F2"/>
<path d="M67.7475 138.238C68.9748 138.524 70.206 138.775 71.4449 139H64.7476C63.8707 138.764 62.9978 138.512 62.1327 138.238C60.2305 137.644 58.3576 136.962 56.514 136.192C49.1191 133.091 42.3073 128.435 37.1537 122.24C34.6333 119.238 32.5751 115.878 31.0472 112.269C29.3904 108.19 28.3375 103.892 27.9216 99.5093C26.9876 90.5177 27.9406 81.2785 29.7207 72.4469C31.5577 63.2934 34.5231 54.4029 38.5489 45.9788C39.033 44.9691 39.5336 43.9658 40.0508 42.9689C40.0863 42.8868 40.1402 42.8139 40.2082 42.7558C40.2762 42.6977 40.3567 42.6559 40.4433 42.6336C40.6193 42.5995 40.8016 42.6365 40.9503 42.7365C41.1288 42.8388 41.2612 43.0058 41.3201 43.2029C41.3789 43.4 41.3598 43.6122 41.2667 43.7956C37.1159 51.8865 33.9694 60.4539 31.8972 69.3074C29.8694 77.9447 28.7182 86.982 29.1108 95.8632C29.4843 104.161 31.6534 112.322 36.5743 119.108C41.0685 125.303 47.2741 130.187 54.1392 133.514C58.4845 135.592 63.0491 137.176 67.7475 138.238Z" fill="white"/>
<path d="M82.4459 139H80.4713C80.2502 138.749 80.0367 138.493 79.8271 138.238C75.3296 132.776 72.2827 126.269 70.9684 119.318C69.3722 110.643 70.6139 101.685 74.5096 93.7714C75.5964 91.5523 76.8771 89.4333 78.3366 87.4392C78.855 87.5497 79.3659 87.6754 79.869 87.8278C76.0299 92.9118 73.4477 98.831 72.333 105.102C71.3386 110.979 71.6692 117.003 73.3007 122.736C74.9323 128.468 77.8235 133.764 81.7636 138.238C81.9845 138.493 82.2133 138.749 82.4459 139Z" fill="white"/>
<path d="M260.32 132.52C260.607 134.766 261.661 136.82 262.786 138.799C262.823 138.866 262.862 138.933 262.901 139H274.591C274.827 138.939 275.061 138.871 275.293 138.799C276.613 138.397 277.86 137.784 278.984 136.984C283.285 133.887 284.94 128.035 284.192 122.791C283.727 119.533 282.297 116.207 279.511 114.452C277.998 113.531 276.194 113.215 274.458 113.567C274.414 113.575 274.369 113.585 274.324 113.594C273.602 113.734 272.917 114.025 272.315 114.448C271.713 114.871 271.207 115.417 270.831 116.049C269.503 118.407 270.294 121.328 270.947 123.952C271.598 126.577 271.951 129.718 270.062 131.654C270.339 130.844 270.395 129.976 270.225 129.137C270.054 128.299 269.664 127.521 269.093 126.883C268.522 126.246 267.792 125.771 266.977 125.509C266.163 125.247 265.293 125.207 264.457 125.392C264.32 125.421 264.186 125.455 264.053 125.495C263.732 125.589 263.422 125.718 263.13 125.881C260.902 127.125 260 129.989 260.32 132.52Z" fill="#F2F2F2"/>
<path d="M267.252 138.799C266.928 138.874 266.603 138.941 266.276 139H268.044C268.275 138.938 268.505 138.871 268.734 138.799C269.236 138.642 269.73 138.462 270.217 138.259C272.19 137.458 273.942 136.195 275.326 134.577C275.991 133.785 276.535 132.898 276.938 131.945C277.375 130.869 277.653 129.734 277.763 128.578C277.963 126.187 277.803 123.779 277.288 121.435C276.803 119.02 276.02 116.673 274.958 114.45C274.83 114.184 274.698 113.919 274.562 113.656C274.552 113.634 274.538 113.615 274.52 113.599C274.502 113.584 274.481 113.573 274.458 113.567C274.412 113.558 274.363 113.568 274.324 113.594C274.277 113.621 274.242 113.665 274.227 113.717C274.211 113.769 274.216 113.825 274.241 113.874C275.336 116.009 276.167 118.27 276.713 120.607C277.277 122.899 277.524 125.257 277.449 127.615C277.409 129.809 276.724 131.943 275.479 133.75C274.269 135.378 272.677 136.683 270.843 137.552C269.697 138.1 268.492 138.519 267.252 138.799Z" fill="white"/>
<path d="M263.373 139H263.894C263.952 138.934 264.009 138.866 264.064 138.799C265.251 137.357 266.055 135.64 266.402 133.805C266.823 131.516 266.495 129.152 265.467 127.063C265.18 126.478 264.842 125.918 264.457 125.392C264.32 125.421 264.186 125.454 264.053 125.495C265.066 126.836 265.747 128.399 266.042 130.054C266.304 131.605 266.217 133.195 265.786 134.708C265.356 136.22 264.593 137.618 263.553 138.799C263.494 138.866 263.434 138.934 263.373 139Z" fill="white"/>
<path d="M154.954 80.9658H118.368L117.98 69.7222C117.963 69.2348 118.052 68.7495 118.241 68.2998C118.43 67.8501 118.714 67.4467 119.074 67.1172C119.434 66.7878 119.861 66.5402 120.325 66.3914C120.79 66.2427 121.281 66.1963 121.766 66.2556L143.056 68.8614H143.059C146.215 68.8699 149.24 70.1286 151.469 72.3618C153.699 74.5949 154.952 77.6204 154.954 80.7753V80.9658Z" fill="#158AFF"/>
<path d="M138.648 41.0829H113.131C112.791 41.0828 112.455 41.1495 112.142 41.2793C111.828 41.4091 111.543 41.5993 111.303 41.8392C111.063 42.079 110.873 42.3638 110.743 42.6772C110.613 42.9906 110.546 43.3265 110.547 43.6657V69.1706C110.546 69.5098 110.613 69.8457 110.743 70.1591C110.873 70.4725 111.063 70.7573 111.303 70.9972C111.543 71.237 111.828 71.4272 112.142 71.557C112.455 71.6868 112.791 71.7535 113.131 71.7534H138.648C138.987 71.7535 139.323 71.6868 139.637 71.557C139.95 71.4273 140.235 71.237 140.475 70.9972C140.715 70.7573 140.905 70.4725 141.035 70.1591C141.165 69.8457 141.232 69.5098 141.232 69.1706V43.6657C141.232 43.3265 141.165 42.9906 141.035 42.6772C140.905 42.3638 140.715 42.079 140.475 41.8392C140.235 41.5993 139.95 41.4091 139.637 41.2793C139.323 41.1495 138.987 41.0828 138.648 41.0829Z" fill="#CCCCCC"/>
<path d="M132.901 60.1546L120.853 62.4996C120.138 62.6379 119.398 62.4872 118.795 62.0805C118.191 61.6739 117.773 61.0445 117.633 60.3306L116.707 55.5771C116.569 54.8628 116.72 54.1228 117.127 53.5195C117.533 52.9162 118.163 52.4988 118.877 52.359L130.925 50.0139C131.64 49.8757 132.38 50.0264 132.984 50.433C133.587 50.8397 134.005 51.469 134.145 52.183L135.071 56.9364C135.209 57.6507 135.059 58.3907 134.652 58.994C134.245 59.5973 133.615 60.0147 132.901 60.1546Z" fill="#3F3D56"/>
<path d="M130.491 54.5388L121.296 56.3284C121.128 56.3611 120.954 56.3258 120.812 56.23C120.67 56.1343 120.571 55.9861 120.539 55.818C120.506 55.6499 120.541 55.4757 120.637 55.3337C120.733 55.1917 120.881 55.0935 121.049 55.0608L130.244 53.2712C130.412 53.2385 130.586 53.2738 130.728 53.3696C130.87 53.4653 130.968 53.6135 131.001 53.7816C131.034 53.9497 130.999 54.1239 130.903 54.2659C130.807 54.4079 130.659 54.506 130.491 54.5388Z" fill="white"/>
<path d="M128.703 57.189L123.948 58.1147C123.78 58.1474 123.605 58.112 123.463 58.0163C123.321 57.9206 123.223 57.7724 123.19 57.6043C123.157 57.4362 123.193 57.262 123.289 57.12C123.384 56.978 123.533 56.8798 123.701 56.8471L128.456 55.9215C128.54 55.9052 128.625 55.9056 128.709 55.9225C128.792 55.9393 128.871 55.9724 128.941 56.0198C129.011 56.0672 129.072 56.128 129.119 56.1987C129.165 56.2694 129.198 56.3486 129.214 56.4318C129.23 56.515 129.23 56.6007 129.213 56.6838C129.196 56.7668 129.163 56.8458 129.116 56.9161C129.068 56.9864 129.007 57.0467 128.937 57.0936C128.866 57.1404 128.787 57.1728 128.703 57.189Z" fill="white"/>
<path d="M141.232 43.6657V47.0556H110.547V43.6657C110.546 43.3265 110.613 42.9906 110.743 42.6772C110.873 42.3638 111.063 42.079 111.303 41.8392C111.543 41.5993 111.828 41.4091 112.142 41.2793C112.455 41.1495 112.791 41.0828 113.131 41.0829H138.648C138.987 41.0828 139.323 41.1495 139.637 41.2793C139.95 41.4091 140.235 41.5993 140.475 41.8392C140.715 42.079 140.905 42.3638 141.035 42.6772C141.165 42.9906 141.232 43.3265 141.232 43.6657Z" fill="#B3B3B3"/>
<path d="M202.507 48.1171C202.33 47.5455 202.03 47.0197 201.627 46.5767C201.225 46.1337 200.73 45.7843 200.178 45.5531C199.626 45.3219 199.029 45.2146 198.431 45.2386C197.833 45.2626 197.247 45.4174 196.716 45.6921L161.61 33.1028L160.064 41.8686L195.058 51.4871C195.579 52.3495 196.398 52.991 197.36 53.29C198.323 53.5889 199.362 53.5246 200.28 53.1092C201.198 52.6939 201.932 51.9562 202.342 51.0361C202.753 50.116 202.812 49.0774 202.507 48.1171Z" fill="#FFB8B8"/>
<path opacity="0.2" d="M202.507 48.1171C202.33 47.5455 202.03 47.0197 201.627 46.5767C201.225 46.1337 200.73 45.7843 200.178 45.5531C199.626 45.3219 199.029 45.2146 198.431 45.2386C197.833 45.2626 197.247 45.4174 196.716 45.6921L161.61 33.1028L160.064 41.8686L195.058 51.4871C195.579 52.3495 196.398 52.991 197.36 53.29C198.323 53.5889 199.362 53.5246 200.28 53.1092C201.198 52.6939 201.932 51.9562 202.342 51.0361C202.753 50.116 202.812 49.0774 202.507 48.1171Z" fill="black"/>
<path d="M167.841 34.7001L164.526 43.3565C164.432 43.6028 164.285 43.8259 164.097 44.0106C163.909 44.1953 163.683 44.3372 163.434 44.4267C163.186 44.5162 162.922 44.5512 162.659 44.5293C162.396 44.5074 162.141 44.4291 161.911 44.2998L153.854 39.7673C152.596 39.2777 151.584 38.3096 151.039 37.0751C150.494 35.8407 150.461 34.4406 150.947 33.182C151.434 31.9233 152.399 30.9087 153.633 30.3606C154.866 29.8125 156.267 29.7757 157.528 30.2581L166.524 32.2525C166.782 32.3097 167.024 32.4217 167.235 32.5809C167.445 32.7401 167.618 32.9427 167.743 33.175C167.868 33.4072 167.942 33.6637 167.959 33.9269C167.975 34.1901 167.935 34.4538 167.841 34.7001Z" fill="#158AFF"/>
<path d="M205.27 56.1324L192.691 61.8475L194.343 68.0619C197.532 80.0626 198.378 92.5649 196.836 104.886L206.033 106.805L213.656 87.3745L210.988 65.2765L205.27 56.1324Z" fill="#158AFF"/>
<path d="M229.952 84.8979C221.687 84.8979 214.952 90.9033 214.625 98.4235H245.279C244.952 90.9033 238.217 84.8979 229.952 84.8979Z" fill="#3F3D56"/>
<path d="M223.518 86.1939C223.088 52.2473 203.746 55.3703 203.746 55.3703C203.746 55.3703 204.107 65.9368 204.281 66.2654C216.607 89.5748 196.265 116.902 170.371 111.874C169.883 111.78 169.414 111.684 168.964 111.586C165.683 110.901 162.787 108.993 160.863 106.25C158.94 103.506 158.134 100.133 158.61 96.8174C161.161 76.3441 148.474 76.7064 148.474 76.7064H129.923L120.29 68.0402C119.95 67.7343 119.54 67.5163 119.096 67.4053C118.652 67.2943 118.188 67.2937 117.744 67.4035C117.3 67.5133 116.889 67.7302 116.548 68.0352C116.208 68.3402 115.947 68.724 115.788 69.153L114.549 72.5154C114.549 72.5154 96.2523 74.4204 97.777 92.3274H103.434C103.42 92.8362 103.44 93.3453 103.495 93.8514L145.711 93.5083C148.186 93.4882 150.37 95.4925 150.38 97.9659C150.383 98.5681 150.264 99.1646 150.03 99.7198C149.797 100.275 149.454 100.777 149.022 101.197C148.589 101.616 148.077 101.945 147.515 102.162C146.953 102.379 146.353 102.48 145.751 102.46L138.945 102.233C136.848 111.568 141.994 117.854 147.664 121.807C153.003 125.475 159.337 127.42 165.815 127.379H184.305C208.32 127.379 212.513 107.186 212.513 107.186C225.092 101.852 223.518 86.1939 223.518 86.1939Z" fill="#3F3D56"/>
<path d="M228.808 138.428C240.65 138.428 250.25 128.833 250.25 116.997C250.25 105.161 240.65 95.5659 228.808 95.5659C216.967 95.5659 207.367 105.161 207.367 116.997C207.367 128.833 216.967 138.428 228.808 138.428Z" fill="#3F3D56"/>
<path d="M228.808 122.25C231.711 122.25 234.064 119.898 234.064 116.997C234.064 114.096 231.711 111.745 228.808 111.745C225.906 111.745 223.553 114.096 223.553 116.997C223.553 119.898 225.906 122.25 228.808 122.25Z" fill="white"/>
<path d="M120.553 138.428C134.184 138.428 145.234 127.383 145.234 113.759C145.234 100.134 134.184 89.0889 120.553 89.0889C106.921 89.0889 95.871 100.134 95.871 113.759C95.871 127.383 106.921 138.428 120.553 138.428Z" fill="#3F3D56"/>
<path d="M120.553 119.805C123.894 119.805 126.602 117.098 126.602 113.759C126.602 110.419 123.894 107.712 120.553 107.712C117.212 107.712 114.503 110.419 114.503 113.759C114.503 117.098 117.212 119.805 120.553 119.805Z" fill="white"/>
<path d="M192.727 63.5361L188.201 51.249C187.965 50.6086 187.858 49.9281 187.885 49.2462C187.912 48.5644 188.074 47.8946 188.36 47.2751C188.646 46.6555 189.052 46.0985 189.553 45.6356C190.055 45.1727 190.643 44.8131 191.284 44.5774L204.259 39.803C205.386 39.3881 206.584 39.1992 207.785 39.247C208.985 39.2949 210.164 39.5786 211.255 40.0819C212.345 40.5853 213.326 41.2984 214.141 42.1806C214.956 43.0628 215.589 44.0968 216.004 45.2235C216.378 46.2348 216.57 47.3046 216.569 48.3829C216.564 49.7521 216.254 51.103 215.661 52.3374C215.069 53.5718 214.208 54.6587 213.143 55.5191C212.373 56.1363 211.508 56.6239 210.581 56.9627L192.727 63.5361Z" fill="#3F3D56"/>
<path d="M216.378 48.3828C216.377 49.7241 216.075 51.0481 215.495 52.2573C214.914 53.4666 214.07 54.5303 213.023 55.3704C211.419 54.9472 209.925 54.1798 208.647 53.1214C207.368 52.063 206.336 50.7391 205.622 49.2417C204.907 47.7442 204.527 46.1092 204.509 44.4502C204.49 42.7912 204.833 41.1481 205.514 39.6351C206.822 39.3509 208.176 39.363 209.478 39.6705C210.781 39.978 211.997 40.5731 213.039 41.4121C214.081 42.2511 214.922 43.3127 215.5 44.519C216.077 45.7252 216.378 47.0455 216.378 48.3828Z" fill="#158AFF"/>
<path d="M101.017 94.804C103.964 94.804 106.354 91.9041 106.354 88.327C106.354 84.7498 103.964 81.85 101.017 81.85C98.0697 81.85 95.6804 84.7498 95.6804 88.327C95.6804 91.9041 98.0697 94.804 101.017 94.804Z" fill="#158AFF"/>
<path d="M171.559 111.254H176.232L178.456 99.1393L171.558 99.1397L171.559 111.254Z" fill="#FFB8B8"/>
<path d="M170.367 109.729L179.57 109.729H179.571C180.341 109.729 181.103 109.88 181.815 110.175C182.527 110.469 183.173 110.901 183.718 111.446C184.262 111.99 184.694 112.636 184.989 113.347C185.284 114.059 185.436 114.821 185.436 115.591V115.781L170.367 115.782L170.367 109.729Z" fill="#2F2E41"/>
<path d="M176.983 106.282C176.929 106.282 176.874 106.279 176.819 106.274L170.352 105.803C170.091 105.779 169.838 105.695 169.614 105.558C169.39 105.421 169.201 105.234 169.06 105.012C168.92 104.79 168.833 104.539 168.805 104.278C168.777 104.017 168.81 103.753 168.9 103.506L177.555 84.0695C177.617 83.8962 177.642 83.712 177.63 83.5285C177.617 83.3449 177.566 83.1661 177.481 83.0031C177.395 82.8382 177.276 82.6933 177.131 82.5777C176.986 82.4621 176.818 82.3786 176.638 82.3326C172.568 81.2693 162.125 78.4378 153.086 75.1249C149.213 73.7054 146.774 71.6542 145.836 69.0281C144.6 65.566 146.429 62.4086 146.507 62.2762L146.569 62.1724L155.075 62.9452L164.296 63.7291L184.504 74.5601C186.197 75.4753 187.483 76.9945 188.106 78.815C188.729 80.6356 188.643 82.6239 187.865 84.3839L178.549 105.266C178.414 105.568 178.194 105.825 177.916 106.005C177.639 106.186 177.315 106.282 176.983 106.282Z" fill="#2F2E41"/>
<path d="M156.554 24.4912C161.724 24.4912 165.916 20.3015 165.916 15.1334C165.916 9.96525 161.724 5.77563 156.554 5.77563C151.383 5.77563 147.191 9.96525 147.191 15.1334C147.191 20.3015 151.383 24.4912 156.554 24.4912Z" fill="#FFB8B8"/>
<path d="M168.891 112.397H173.564L175.787 100.282L168.89 100.283L168.891 112.397Z" fill="#FFB8B8"/>
<path d="M167.699 110.872L176.902 110.872H176.902C177.672 110.872 178.435 111.023 179.147 111.318C179.858 111.612 180.505 112.044 181.049 112.589C181.594 113.133 182.026 113.779 182.321 114.49C182.616 115.202 182.767 115.964 182.767 116.734V116.924L167.699 116.925L167.699 110.872Z" fill="#2F2E41"/>
<path d="M174.315 107.425C174.261 107.425 174.206 107.422 174.151 107.417L167.684 106.946C167.422 106.922 167.17 106.838 166.946 106.701C166.722 106.564 166.533 106.377 166.392 106.155C166.252 105.933 166.164 105.682 166.137 105.421C166.109 105.16 166.141 104.896 166.232 104.649L174.887 85.2125C174.949 85.0393 174.974 84.8551 174.961 84.6715C174.948 84.488 174.898 84.3092 174.812 84.1462C174.727 83.9813 174.608 83.8363 174.463 83.7208C174.317 83.6052 174.149 83.5217 173.969 83.4757C169.899 82.4123 159.457 79.5809 150.418 76.268C146.545 74.8485 144.106 72.7973 143.168 70.1712C141.932 66.7091 143.761 63.5517 143.839 63.4192L143.9 63.3154L152.406 64.0882L161.628 64.8722L181.835 75.7032C183.529 76.6184 184.815 78.1376 185.438 79.9581C186.061 81.7787 185.975 83.7669 185.197 85.5269L175.88 106.409C175.746 106.711 175.526 106.968 175.248 107.148C174.971 107.329 174.646 107.425 174.315 107.425Z" fill="#2F2E41"/>
<path d="M159.441 29.7974L149.53 26.3684C149.53 26.3684 143.309 31.1462 146.297 42.9985C147.858 49.1148 147.403 55.571 145.001 61.4086C144.712 62.1308 144.379 62.8346 144.003 63.5159C144.003 63.5159 155.057 76.851 165.349 66.9449L161.347 47.7044C161.347 47.7044 167.636 34.9409 159.441 29.7974Z" fill="#158AFF"/>
<path d="M157.716 24.8094C156.383 22.8159 155.332 20.0517 156.799 18.1549C158.247 16.2826 161.103 16.5585 163.321 15.73C166.41 14.576 168.202 10.9487 167.643 7.70014C167.084 4.4516 164.475 1.75866 161.367 0.656798C158.259 -0.445066 154.754 -0.0867143 151.711 1.18215C147.964 2.74414 144.75 5.7657 143.402 9.59321C142.054 13.4207 142.775 18.0164 145.571 20.9583C148.568 24.1124 153.273 24.9529 157.625 24.9019" fill="#2F2E41"/>
<path d="M149.007 7.80434C147.328 9.17056 144.766 8.56374 142.964 7.36472C141.162 6.16569 139.699 4.45835 137.749 3.51826C134.311 1.86093 130.154 2.96268 126.808 4.79847C123.462 6.63425 120.496 9.17044 116.962 10.6111C113.428 12.0517 108.918 12.1229 106.241 9.40268C105.583 11.3099 105.529 13.3738 106.087 15.3127C106.645 17.2516 107.789 18.9712 109.361 20.2368C110.933 21.5023 112.857 22.2523 114.872 22.3842C116.886 22.5162 118.892 22.0238 120.616 20.9742C124.488 18.6164 126.627 13.6728 130.971 12.3715C133.374 11.6514 135.955 12.2314 138.385 12.8596C140.814 13.4878 143.347 14.1666 145.798 13.6318C148.25 13.097 150.543 10.895 150.231 8.40643L149.007 7.80434Z" fill="#2F2E41"/>
<path d="M202.041 47.736C201.795 47.1906 201.432 46.7059 200.978 46.316C200.524 45.926 199.99 45.6403 199.413 45.4789C198.837 45.3176 198.232 45.2845 197.641 45.3821C197.05 45.4797 196.488 45.7056 195.995 46.0438L159.603 37.88L159.151 46.7695L195.065 51.9989C195.688 52.7905 196.58 53.3261 197.572 53.5041C198.564 53.6821 199.587 53.4902 200.447 52.9647C201.307 52.4392 201.944 51.6167 202.238 50.6531C202.532 49.6894 202.462 48.6515 202.041 47.736Z" fill="#FFB8B8"/>
<path d="M165.984 38.6966L163.763 47.6957C163.7 47.9517 163.582 48.1912 163.418 48.3977C163.254 48.6041 163.047 48.7729 162.812 48.8923C162.576 49.0117 162.318 49.0791 162.055 49.0898C161.791 49.1005 161.528 49.0543 161.284 48.9543L152.729 45.45C151.42 45.1201 150.295 44.2844 149.601 43.1262C148.907 41.9681 148.701 40.5822 149.028 39.2725C149.356 37.9629 150.189 36.8365 151.347 36.1406C152.504 35.4447 153.89 35.236 155.201 35.5604L164.375 36.43C164.638 36.455 164.892 36.5363 165.12 36.6683C165.349 36.8003 165.546 36.98 165.699 37.1951C165.851 37.4102 165.956 37.6557 166.005 37.9148C166.054 38.1739 166.047 38.4405 165.984 38.6966V38.6966Z" fill="#158AFF"/>
<path d="M197.837 54.7988C199.311 54.7988 200.505 53.6048 200.505 52.1318C200.505 50.6589 199.311 49.4648 197.837 49.4648C196.364 49.4648 195.169 50.6589 195.169 52.1318C195.169 53.6048 196.364 54.7988 197.837 54.7988Z" fill="#158AFF"/>
<path d="M316 138.619C316 138.72 315.959 138.817 315.888 138.888C315.817 138.959 315.72 139 315.619 139H0.381182C0.280086 139 0.183131 138.96 0.111645 138.888C0.0401599 138.817 0 138.72 0 138.619C0 138.518 0.0401599 138.421 0.111645 138.35C0.183131 138.278 0.280086 138.238 0.381182 138.238H315.619C315.72 138.238 315.817 138.279 315.888 138.35C315.959 138.421 316 138.518 316 138.619Z" fill="#3F3D56"/>
</g>
<defs>
<clipPath id="clip0_527_605">
<rect width="316" height="139" fill="white"/>
</clipPath>
</defs>
</svg>
