<svg width="217" height="181" viewBox="0 0 217 181" fill="none" xmlns="http://www.w3.org/2000/svg">
<g clip-path="url(#clip0_514_2)">
<path d="M10.0832 172.474C13.0933 178.051 19.4816 180.446 19.4816 180.446C19.4816 180.446 20.9897 173.797 17.9797 168.22C14.9697 162.642 8.58137 160.248 8.58137 160.248C8.58137 160.248 7.07324 166.896 10.0832 172.474Z" fill="#2F2E41"/>
<path d="M12.1521 170.639C17.5864 173.906 19.6794 180.394 19.6794 180.394C19.6794 180.394 12.9615 181.587 7.52722 178.32C2.09292 175.053 0 168.564 0 168.564C0 168.564 6.71782 167.372 12.1521 170.639Z" fill="#18A0FB"/>
<path d="M133.99 8.68933H100.084V9.17331H133.99V8.68933Z" fill="#838383"/>
<path d="M124.787 9.05225H124.302V13.529H124.787V9.05225Z" fill="#838383"/>
<path d="M110.013 9.05225H109.529V13.529H110.013V9.05225Z" fill="#838383"/>
<path d="M151.185 31.9202H117.279V32.4041H151.185V31.9202Z" fill="#838383"/>
<path d="M126.966 27.5643H126.482V32.0411H126.966V27.5643Z" fill="#838383"/>
<path d="M141.74 27.5643H141.255V32.0411H141.74V27.5643Z" fill="#838383"/>
<path d="M196.232 42.8096H162.326V43.2935H196.232V42.8096Z" fill="#838383"/>
<path d="M172.013 38.4539H171.529V42.9306H172.013V38.4539Z" fill="#838383"/>
<path d="M186.787 38.4539H186.302V42.9306H186.787V38.4539Z" fill="#838383"/>
<path d="M192.841 155.092H158.935V155.576H192.841V155.092Z" fill="#838383"/>
<path d="M168.623 150.736H168.138V155.213H168.623V150.736Z" fill="#838383"/>
<path d="M183.396 150.736H182.912V155.213H183.396V150.736Z" fill="#838383"/>
<path d="M134.959 77.4138H101.052V77.8978H134.959V77.4138Z" fill="#838383"/>
<path d="M110.74 73.058H110.255V77.5348H110.74V73.058Z" fill="#838383"/>
<path d="M125.513 73.058H125.029V77.5348H125.513V73.058Z" fill="#838383"/>
<path d="M145.615 135.733H111.709V136.217H145.615V135.733Z" fill="#838383"/>
<path d="M121.396 131.377H120.912V135.854H121.396V131.377Z" fill="#838383"/>
<path d="M136.17 131.377H135.685V135.854H136.17V131.377Z" fill="#838383"/>
<path d="M199.865 118.068H165.959V118.552H199.865V118.068Z" fill="#838383"/>
<path d="M175.646 113.712H175.162V118.189H175.646V113.712Z" fill="#838383"/>
<path d="M190.42 113.712H189.935V118.189H190.42V113.712Z" fill="#838383"/>
<path d="M87.6863 169.92H30.3398V169.508H87.2737V149.515H35.1608L32.6292 144.245L33.0012 144.067L35.4204 149.103H87.6863V169.92Z" fill="#2F2E41"/>
<path d="M37.9722 180.02C40.3647 180.02 42.3041 178.082 42.3041 175.691C42.3041 173.301 40.3647 171.363 37.9722 171.363C35.5797 171.363 33.6403 173.301 33.6403 175.691C33.6403 178.082 35.5797 180.02 37.9722 180.02Z" fill="#3F3D56"/>
<path d="M80.6728 180.02C83.0653 180.02 85.0048 178.082 85.0048 175.691C85.0048 173.301 83.0653 171.363 80.6728 171.363C78.2804 171.363 76.3409 173.301 76.3409 175.691C76.3409 178.082 78.2804 180.02 80.6728 180.02Z" fill="#3F3D56"/>
<path d="M131.006 86.4443C132.487 86.4443 133.688 85.2446 133.688 83.7648C133.688 82.285 132.487 81.0853 131.006 81.0853C129.525 81.0853 128.324 82.285 128.324 83.7648C128.324 85.2446 129.525 86.4443 131.006 86.4443Z" fill="#3F3D56"/>
<path d="M93.8199 142.713H29.362L15.4149 97.1622H108.183L108.099 97.4302L93.8199 142.713ZM29.6672 142.301H93.5173L107.621 97.5744H15.9725L29.6672 142.301Z" fill="#2F2E41"/>
<path d="M88.7884 140.343H32.1727L19.9224 99.9446H101.404L101.33 100.182L88.7884 140.343Z" fill="#F2F2F2"/>
<path d="M109.339 93.0928L108.94 92.987L111.663 82.7343H127.499V83.1466H111.98L109.339 93.0928Z" fill="#2F2E41"/>
<path d="M103.548 110.972H19.9219V111.384H103.548V110.972Z" fill="#2F2E41"/>
<path d="M98.7586 126.159H24.5721V126.571H98.7586V126.159Z" fill="#2F2E41"/>
<path d="M62.0042 97.3683H61.5916V142.507H62.0042V97.3683Z" fill="#2F2E41"/>
<path d="M80.4755 97.3554L77.514 142.493L77.9257 142.52L80.8873 97.3823L80.4755 97.3554Z" fill="#2F2E41"/>
<path d="M43.1289 97.3548L42.7172 97.3816L45.6615 142.52L46.0733 142.494L43.1289 97.3548Z" fill="#2F2E41"/>
<path d="M217 180.281H0V180.765H217V180.281Z" fill="#2F2E41"/>
<path d="M144.201 14.9733C144.201 14.9733 147.741 25.0416 145.563 26.5905C143.384 28.1395 152.916 40.7893 152.916 40.7893L164.354 37.6914L158.09 27.1068C158.09 27.1068 157.273 16.5223 157.273 14.9733C157.273 13.4244 144.201 14.9733 144.201 14.9733Z" fill="#A0616A"/>
<path opacity="0.1" d="M144.201 14.9733C144.201 14.9733 147.741 25.0416 145.563 26.5905C143.384 28.1395 152.916 40.7893 152.916 40.7893L164.354 37.6914L158.09 27.1068C158.09 27.1068 157.273 16.5223 157.273 14.9733C157.273 13.4244 144.201 14.9733 144.201 14.9733Z" fill="black"/>
<path d="M138.258 86.7414C138.258 86.7414 137.225 99.6494 138.258 106.362C139.292 113.074 140.842 131.661 140.842 131.661C140.842 131.661 140.842 166.771 146.526 167.287C152.211 167.803 156.345 168.32 156.861 166.254C157.378 164.189 154.278 163.157 155.828 162.124C157.378 161.091 157.895 157.477 155.828 153.347C153.761 149.216 155.828 107.394 155.828 107.394L165.646 133.726C165.646 133.726 166.679 155.412 167.713 158.51C168.746 161.608 166.679 167.287 170.297 167.803C173.914 168.32 178.048 165.222 180.115 164.189C182.182 163.157 177.014 163.157 178.048 162.64C179.081 162.124 182.182 160.575 181.148 160.059C180.115 159.542 179.081 134.759 179.081 134.759C179.081 134.759 176.239 81.8364 172.622 79.7712C169.005 77.7059 166.679 81.2632 166.679 81.2632L138.258 86.7414Z" fill="#2F2E41"/>
<path d="M147.56 165.222V169.353C147.56 169.353 142.909 180.581 147.56 180.581C152.211 180.581 155.828 181.744 155.828 180.195V166.255L147.56 165.222Z" fill="#2F2E41"/>
<path d="M178.048 165.215V169.345C178.048 169.345 182.699 180.573 178.048 180.573C173.397 180.573 169.78 181.737 169.78 180.188V166.247L178.048 165.215Z" fill="#2F2E41"/>
<path d="M151.435 22.4599C156.572 22.4599 160.737 18.299 160.737 13.1662C160.737 8.03338 156.572 3.87244 151.435 3.87244C146.298 3.87244 142.134 8.03338 142.134 13.1662C142.134 18.299 146.298 22.4599 151.435 22.4599Z" fill="#A0616A"/>
<path d="M148.593 30.4628C148.593 30.4628 151.177 38.2075 155.311 36.6586L159.445 35.1096L166.679 84.6762C166.679 84.6762 160.995 92.9373 152.727 87.7741C144.459 82.6109 148.593 30.4628 148.593 30.4628Z" fill="#18A0FB"/>
<path d="M155.828 28.9138L158.153 24.0088C158.153 24.0088 171.847 30.4628 173.914 32.528C175.981 34.5933 175.981 37.6912 175.981 37.6912L172.364 50.5992C172.364 50.5992 173.397 78.9967 173.397 80.0294C173.397 81.062 177.014 86.7415 174.431 84.6762C171.847 82.611 171.33 80.5457 169.263 83.6436C167.196 86.7415 162.545 90.3557 162.545 90.3557L155.828 28.9138Z" fill="#2F2E41"/>
<path d="M173.914 66.0887L172.364 80.5457C172.364 80.5457 163.062 88.8068 165.129 89.3231C167.196 89.8394 168.23 87.7741 168.23 87.7741C168.23 87.7741 171.847 91.3884 173.914 89.3231C175.981 87.2578 181.148 67.6377 181.148 67.6377L173.914 66.0887Z" fill="#A0616A"/>
<path d="M151.634 0.0314272C149.572 -0.0422266 147.365 -0.0786605 145.626 1.03161C144.826 1.58881 144.125 2.27506 143.55 3.06226C141.857 5.20106 140.394 7.89216 141.023 10.5458L141.753 10.2612C141.753 10.9695 141.596 11.669 141.292 12.309C141.395 12.0101 141.739 12.4933 141.647 12.7956L140.842 15.4334C142.165 14.9489 143.811 15.93 144.012 17.3233C144.104 14.2594 144.422 10.7461 146.91 8.95212C148.164 8.04741 149.752 7.77122 151.279 7.52597C152.688 7.29971 154.166 7.08395 155.515 7.54747C156.865 8.01099 158.014 9.39021 157.708 10.7831C158.331 10.5689 159.027 11.0022 159.334 11.5837C159.642 12.1652 159.658 12.8511 159.667 13.5087C160.331 13.9772 161.086 13.047 161.356 12.2816C161.991 10.485 162.555 8.57254 162.213 6.6982C161.871 4.82385 160.342 3.03263 158.435 3.02627C158.667 2.77227 158.79 2.43827 158.78 2.09492L157.208 1.96224C157.607 1.90579 157.974 1.7125 158.246 1.41546C157.615 2.10922 152.654 0.067873 151.634 0.0314272Z" fill="#2F2E41"/>
<path d="M151.177 27.3649C151.177 27.3649 146.97 23.246 145.457 23.4983C143.943 23.7506 141.876 27.3649 141.876 27.3649C141.876 27.3649 129.474 31.4954 129.991 35.6259C130.507 39.7565 136.191 59.8929 136.191 59.8929C136.191 59.8929 140.842 84.1599 136.708 86.7415C132.574 89.3231 156.345 96.0352 156.861 92.9373C157.378 89.8394 158.412 58.8603 156.861 54.2134C155.311 49.5665 151.177 27.3649 151.177 27.3649Z" fill="#2F2E41"/>
<path d="M169.263 35.626H175.653C175.653 35.626 180.115 55.2461 180.632 57.3114C181.148 59.3766 182.182 69.1867 181.665 69.1867C181.148 69.1867 170.813 67.1214 170.813 68.6704L169.263 35.626Z" fill="#2F2E41"/>
<path d="M169.047 84.2118H144.586C142.199 73.24 141.999 62.6394 144.586 52.5114H169.047C165.099 62.4572 164.853 72.9852 169.047 84.2118Z" fill="#F2F2F2"/>
<path d="M134.641 70.7356L141.876 73.8335C141.876 73.8335 155.828 75.8988 155.828 70.2193C155.828 64.5398 141.876 67.6377 141.876 67.6377L137.225 66.1519L134.641 70.7356Z" fill="#A0616A"/>
<path d="M136.191 32.5281L129.991 34.077L125.34 61.4419C125.34 61.4419 123.79 68.6704 126.373 69.1867C128.957 69.703 136.191 73.8336 136.191 73.8336C136.191 73.8336 137.225 66.0888 139.292 66.0888L134.124 61.9582L137.225 43.8871L136.191 32.5281Z" fill="#2F2E41"/>
<path d="M48.4977 85.3994H14.5914V85.8834H48.4977V85.3994Z" fill="#838383"/>
<path d="M24.2789 81.0437H23.7946V85.5205H24.2789V81.0437Z" fill="#838383"/>
<path d="M39.0524 81.0437H38.568V85.5205H39.0524V81.0437Z" fill="#838383"/>
<path d="M60.3649 13.771H26.4586V14.255H60.3649V13.771Z" fill="#838383"/>
<path d="M51.1617 14.134H50.6774V18.6108H51.1617V14.134Z" fill="#838383"/>
<path d="M36.3883 14.134H35.9039V18.6108H36.3883V14.134Z" fill="#838383"/>
<path d="M94.5133 61.4426H60.6071V61.9266H94.5133V61.4426Z" fill="#838383"/>
<path d="M85.3102 61.8057H84.8258V66.2825H85.3102V61.8057Z" fill="#838383"/>
<path d="M70.5367 61.8057H70.0524V66.2825H70.5367V61.8057Z" fill="#838383"/>
<path d="M36.8727 61.2007H2.96643V61.6847H36.8727V61.2007Z" fill="#838383"/>
<path d="M27.6696 61.5636H27.1852V66.0404H27.6696V61.5636Z" fill="#838383"/>
<path d="M12.8961 61.5636H12.4117V66.0404H12.8961V61.5636Z" fill="#838383"/>
<path d="M77.5602 37.0018H43.6539V37.4858H77.5602V37.0018Z" fill="#838383"/>
<path d="M53.3414 32.6461H52.8571V37.1229H53.3414V32.6461Z" fill="#838383"/>
<path d="M68.1149 32.6461H67.6305V37.1229H68.1149V32.6461Z" fill="#838383"/>
</g>
<defs>
<clipPath id="clip0_514_2">
<rect width="217" height="181" fill="white"/>
</clipPath>
</defs>
</svg>
