<svg width="290" height="168" viewBox="0 0 290 168" fill="none" xmlns="http://www.w3.org/2000/svg">
<g clip-path="url(#clip0_527_477)">
<g opacity="0.1">
<path opacity="0.1" d="M213.217 165.522C216.313 165.522 218.822 162.246 218.822 158.204C218.822 154.163 216.313 150.887 213.217 150.887C210.122 150.887 207.613 154.163 207.613 158.204C207.613 162.246 210.122 165.522 213.217 165.522Z" fill="#3F3D56"/>
<path opacity="0.1" d="M217.652 126.899C218.437 125.54 218.845 123.996 218.832 122.427C218.832 118.377 216.323 115.109 213.227 115.109C210.132 115.109 207.625 118.384 207.625 122.427C207.609 123.995 208.013 125.539 208.795 126.899C208.028 128.265 207.625 129.805 207.625 131.371C207.625 132.936 208.028 134.476 208.795 135.842C208.028 137.208 207.625 138.748 207.625 140.314C207.625 141.88 208.028 143.42 208.795 144.787C208.013 146.147 207.609 147.691 207.625 149.259C207.625 153.309 210.134 156.577 213.227 156.577C216.32 156.577 218.832 153.302 218.832 149.259C218.848 147.691 218.444 146.147 217.662 144.787C218.429 143.42 218.832 141.88 218.832 140.314C218.832 138.748 218.429 137.208 217.662 135.842C218.429 134.476 218.832 132.936 218.832 131.371C218.832 129.805 218.429 128.265 217.662 126.899H217.652Z" fill="#3F3D56"/>
<path opacity="0.1" d="M213.217 120.802C216.313 120.802 218.822 117.525 218.822 113.484C218.822 109.443 216.313 106.167 213.217 106.167C210.122 106.167 207.613 109.443 207.613 113.484C207.613 117.525 210.122 120.802 213.217 120.802Z" fill="#3F3D56"/>
<path opacity="0.1" d="M213.217 111.857C216.313 111.857 218.822 108.58 218.822 104.539C218.822 100.498 216.313 97.2214 213.217 97.2214C210.122 97.2214 207.613 100.498 207.613 104.539C207.613 108.58 210.122 111.857 213.217 111.857Z" fill="#3F3D56"/>
<path opacity="0.1" d="M234.195 43.3307C234.959 42.3579 235.656 41.3338 236.28 40.2655L221.565 37.8533L237.49 37.9723C239.017 34.6562 239.849 31.0644 239.936 27.4164C240.023 23.7685 239.364 20.1411 237.998 16.7562L216.63 27.8072L236.339 13.3645C234.492 10.1846 232.008 7.41795 229.043 5.23686C226.078 3.05578 222.695 1.50689 219.104 0.686629C215.513 -0.133637 211.791 -0.207727 208.17 0.468971C204.549 1.14567 201.106 2.55867 198.057 4.62002C195.007 6.68136 192.415 9.34693 190.442 12.4508C188.469 15.5547 187.158 19.0304 186.59 22.6616C186.022 26.2929 186.209 30.0019 187.14 33.5578C188.071 37.1137 189.726 40.4403 192.001 43.3307C190.809 44.844 189.783 46.481 188.941 48.2133L208.054 58.1202L187.675 51.2861C186.241 55.5045 185.885 60.0131 186.638 64.4036C187.391 68.7942 189.23 72.9279 191.989 76.4306C188.874 80.3803 186.937 85.1245 186.398 90.1208C185.86 95.1171 186.741 100.164 188.942 104.684C191.142 109.204 194.574 113.015 198.843 115.682C203.113 118.348 208.048 119.762 213.085 119.762C218.122 119.762 223.058 118.348 227.327 115.682C231.597 113.015 235.028 109.204 237.229 104.684C239.43 100.164 240.311 95.1171 239.772 90.1208C239.233 85.1245 237.296 80.3803 234.182 76.4306C237.903 71.7109 239.926 65.8804 239.926 59.8756C239.926 53.8708 237.903 48.0403 234.182 43.3206L234.195 43.3307Z" fill="#158AFF"/>
<path opacity="0.1" d="M186.257 59.887C186.248 65.8929 188.272 71.726 192.001 76.4408C188.887 80.3905 186.95 85.1347 186.411 90.131C185.872 95.1273 186.754 100.174 188.954 104.694C191.155 109.214 194.586 113.026 198.856 115.692C203.125 118.358 208.061 119.772 213.098 119.772C218.135 119.772 223.071 118.358 227.34 115.692C231.61 113.026 235.041 109.214 237.242 104.694C239.442 100.174 240.324 95.1273 239.785 90.131C239.246 85.1347 237.309 80.3905 234.195 76.4408C237.792 71.8847 186.257 56.88 186.257 59.887Z" fill="black"/>
</g>
<g opacity="0.1">
<path opacity="0.1" d="M56.0235 157.696C57.9068 157.696 59.4335 155.701 59.4335 153.241C59.4335 150.78 57.9068 148.786 56.0235 148.786C54.1402 148.786 52.6135 150.78 52.6135 153.241C52.6135 155.701 54.1402 157.696 56.0235 157.696Z" fill="#3F3D56"/>
<path opacity="0.1" d="M58.7357 134.184C59.2117 133.355 59.4578 132.415 59.4487 131.46C59.4487 129 57.9264 127.005 56.0361 127.005C54.1459 127.005 52.6262 129 52.6262 131.46C52.6162 132.415 52.8615 133.355 53.3366 134.184C52.8708 135.016 52.6263 135.953 52.6263 136.906C52.6263 137.859 52.8708 138.796 53.3366 139.628C52.8708 140.46 52.6263 141.398 52.6263 142.351C52.6263 143.304 52.8708 144.241 53.3366 145.073C52.8611 145.901 52.6158 146.84 52.6262 147.794C52.6262 150.257 54.1485 152.251 56.0361 152.251C57.9238 152.251 59.4487 150.257 59.4487 147.794C59.4582 146.84 59.2121 145.9 58.7357 145.073C59.2029 144.241 59.4482 143.304 59.4482 142.351C59.4482 141.397 59.2029 140.46 58.7357 139.628C59.2029 138.797 59.4482 137.859 59.4482 136.906C59.4482 135.953 59.2029 135.015 58.7357 134.184Z" fill="#3F3D56"/>
<path opacity="0.1" d="M56.0235 130.471C57.9068 130.471 59.4335 128.476 59.4335 126.016C59.4335 123.556 57.9068 121.561 56.0235 121.561C54.1402 121.561 52.6135 123.556 52.6135 126.016C52.6135 128.476 54.1402 130.471 56.0235 130.471Z" fill="#3F3D56"/>
<path opacity="0.1" d="M56.0235 125.026C57.9068 125.026 59.4335 123.032 59.4335 120.571C59.4335 118.111 57.9068 116.116 56.0235 116.116C54.1402 116.116 52.6135 118.111 52.6135 120.571C52.6135 123.032 54.1402 125.026 56.0235 125.026Z" fill="#3F3D56"/>
<path opacity="0.1" d="M43.2589 83.3077C42.7932 82.716 42.3693 82.0927 41.9903 81.4423L50.9542 79.9742L41.2596 80.0476C40.3315 78.0299 39.8251 75.8446 39.7715 73.6252C39.7178 71.4058 40.118 69.1988 40.9475 67.1387L53.9455 73.8741L41.9523 65.0657C43.0771 63.1312 44.589 61.4483 46.3938 60.1217C48.1987 58.7951 50.2578 57.8533 52.4432 57.3547C54.6285 56.8561 56.8934 56.8115 59.0968 57.2236C61.3002 57.6357 63.395 58.4958 65.2509 59.7502C67.1068 61.0047 68.6841 62.6267 69.8847 64.5155C71.0852 66.4042 71.8834 68.5191 72.2294 70.7288C72.5755 72.9384 72.462 75.1955 71.8962 77.3595C71.3303 79.5235 70.3242 81.5483 68.9403 83.3077C69.6662 84.2277 70.2906 85.2232 70.8026 86.2768L59.167 92.311L71.5739 88.1574C72.4452 90.7263 72.6607 93.4715 72.2009 96.1444C71.741 98.8174 70.6204 101.334 68.9403 103.466C70.8358 105.87 72.015 108.758 72.3428 111.8C72.6707 114.841 72.1341 117.913 70.7944 120.665C69.4546 123.416 67.3658 125.736 64.7668 127.359C62.1677 128.983 59.1633 129.843 56.0971 129.843C53.0308 129.843 50.0264 128.983 47.4273 127.359C44.8283 125.736 42.7395 123.416 41.3997 120.665C40.06 117.913 39.5234 114.841 39.8513 111.8C40.1791 108.758 41.3583 105.87 43.2538 103.466C40.9887 100.592 39.7573 97.0425 39.7573 93.3868C39.7573 89.731 40.9887 86.1814 43.2538 83.3077H43.2589Z" fill="#158AFF"/>
<path opacity="0.1" d="M72.4365 93.3867C72.4419 97.0433 71.21 100.595 68.9403 103.466C70.8358 105.87 72.0149 108.758 72.3428 111.8C72.6707 114.841 72.1341 117.913 70.7944 120.665C69.4546 123.416 67.3658 125.736 64.7668 127.359C62.1677 128.983 59.1633 129.843 56.097 129.843C53.0308 129.843 50.0263 128.983 47.4273 127.359C44.8282 125.736 42.7395 123.416 41.3997 120.665C40.06 117.913 39.5234 114.841 39.8513 111.8C40.1791 108.758 41.3583 105.87 43.2538 103.466C41.0642 100.704 72.4365 91.5567 72.4365 93.3867Z" fill="black"/>
</g>
<g opacity="0.1">
<path opacity="0.1" d="M132.9 161.573C135.421 161.573 137.465 158.905 137.465 155.613C137.465 152.321 135.421 149.652 132.9 149.652C130.379 149.652 128.336 152.321 128.336 155.613C128.336 158.905 130.379 161.573 132.9 161.573Z" fill="#3F3D56"/>
<path opacity="0.1" d="M136.513 130.109C137.149 129 137.478 127.742 137.465 126.464C137.465 123.173 135.435 120.503 132.898 120.503C130.36 120.503 128.331 123.173 128.331 126.464C128.317 127.742 128.647 129 129.285 130.109C128.659 131.222 128.331 132.476 128.331 133.752C128.331 135.028 128.659 136.283 129.285 137.396C128.659 138.509 128.331 139.763 128.331 141.038C128.331 142.314 128.659 143.568 129.285 144.681C128.647 145.789 128.317 147.047 128.331 148.325C128.331 151.616 130.376 154.286 132.898 154.286C135.42 154.286 137.465 151.616 137.465 148.325C137.478 147.048 137.149 145.79 136.513 144.681C137.137 143.568 137.465 142.314 137.465 141.038C137.465 139.763 137.137 138.509 136.513 137.396C137.137 136.282 137.465 135.028 137.465 133.752C137.465 132.477 137.137 131.222 136.513 130.109Z" fill="#3F3D56"/>
<path opacity="0.1" d="M132.9 125.14C135.421 125.14 137.465 122.471 137.465 119.179C137.465 115.887 135.421 113.218 132.9 113.218C130.379 113.218 128.336 115.887 128.336 119.179C128.336 122.471 130.379 125.14 132.9 125.14Z" fill="#3F3D56"/>
<path opacity="0.1" d="M132.9 117.853C135.421 117.853 137.465 115.184 137.465 111.892C137.465 108.6 135.421 105.931 132.9 105.931C130.379 105.931 128.336 108.6 128.336 111.892C128.336 115.184 130.379 117.853 132.9 117.853Z" fill="#3F3D56"/>
<path opacity="0.1" d="M115.822 62.0284C115.199 61.2368 114.631 60.4029 114.122 59.5327L126.116 57.5685L113.146 57.6647C111.901 54.9634 111.222 52.0373 111.15 49.0652C111.078 46.0931 111.615 43.1376 112.727 40.3795L130.132 49.3853L114.079 37.6155C115.579 35.0154 117.6 32.7518 120.017 30.9662C122.433 29.1805 125.192 27.9112 128.122 27.2375C131.053 26.5638 134.091 26.5003 137.047 27.0508C140.002 27.6014 142.813 28.7541 145.302 30.4372C147.791 32.1202 149.906 34.2972 151.513 36.8323C153.121 39.3674 154.187 42.2061 154.646 45.1708C155.104 48.1356 154.945 51.1629 154.177 54.0634C153.41 56.9639 152.051 59.6754 150.186 62.0284C151.157 63.2617 151.993 64.5957 152.678 66.0074L137.109 74.0767L153.71 68.5082C154.876 71.9457 155.165 75.6191 154.549 79.1959C153.934 82.7727 152.434 86.1399 150.186 88.9928C152.723 92.2104 154.3 96.0752 154.739 100.145C155.178 104.215 154.46 108.326 152.667 112.008C150.874 115.691 148.079 118.795 144.601 120.967C141.123 123.139 137.102 124.291 132.999 124.291C128.896 124.291 124.875 123.139 121.397 120.967C117.919 118.795 115.124 115.691 113.331 112.008C111.538 108.326 110.82 104.215 111.259 100.145C111.698 96.0752 113.276 92.2104 115.812 88.9928C112.781 85.1473 111.134 80.3974 111.134 75.5055C111.134 70.6137 112.781 65.8638 115.812 62.0183L115.822 62.0284Z" fill="#158AFF"/>
<path opacity="0.1" d="M154.865 75.5169C154.872 80.4096 153.224 85.1616 150.186 89.0029C152.723 92.2205 154.3 96.0853 154.739 100.155C155.178 104.225 154.46 108.336 152.667 112.019C150.874 115.701 148.079 118.805 144.601 120.977C141.123 123.149 137.102 124.301 132.999 124.301C128.896 124.301 124.875 123.149 121.397 120.977C117.919 118.805 115.124 115.701 113.331 112.019C111.538 108.336 110.82 104.225 111.259 100.155C111.698 96.0853 113.276 92.2205 115.812 89.0029C112.882 85.2922 154.865 73.0667 154.865 75.5169Z" fill="black"/>
</g>
<path d="M290 161.037C290 162.776 277.258 164.365 256.192 165.593C252.361 165.813 248.256 166.023 243.902 166.221C240.14 166.389 236.197 166.549 232.074 166.699C228.078 166.841 223.93 166.972 219.629 167.094C206.045 167.481 191.027 167.76 175.073 167.899C171.201 167.934 167.278 167.961 163.303 167.98C159.163 167.998 154.974 168.007 150.739 168.005C73.8269 168.005 11.4807 164.889 11.4807 161.044C11.4807 157.2 73.8269 154.084 150.739 154.084C183.852 154.084 214.26 154.663 238.16 155.625L240.774 155.732H240.789C270.895 157.005 290 158.921 290 161.037Z" fill="#3F3D56"/>
<path opacity="0.15" d="M290 161.037C290 162.776 277.258 164.365 256.192 165.593C252.361 165.813 248.256 166.023 243.902 166.221C240.14 166.389 236.197 166.549 232.074 166.699C228.078 166.841 223.93 166.972 219.629 167.094C206.045 167.481 191.027 167.76 175.073 167.899C171.201 167.934 167.278 167.961 163.303 167.98C159.163 167.998 154.974 168.007 150.739 168.005C73.8269 168.005 11.4807 164.889 11.4807 161.044C11.4807 157.2 73.8269 154.084 150.739 154.084C183.852 154.084 214.26 154.663 238.16 155.625L240.774 155.732H240.789C270.895 157.005 290 158.921 290 161.037Z" fill="black"/>
<path d="M278.519 159.812C278.519 161.265 265.778 162.596 244.711 163.608C240.883 163.793 236.775 163.968 232.424 164.132C228.66 164.274 224.717 164.407 220.595 164.532C216.6 164.65 212.452 164.761 208.15 164.864C194.564 165.188 179.546 165.421 163.592 165.537C159.724 165.566 155.801 165.588 151.822 165.603C147.682 165.618 143.495 165.626 139.261 165.626C62.3487 165.626 0 163.021 0 159.804C0 156.587 62.3487 153.982 139.261 153.982C172.371 153.982 202.779 154.466 226.68 155.271L229.293 155.359H229.311C259.427 156.44 278.519 158.032 278.519 159.812Z" fill="#3F3D56"/>
<path d="M35.9671 106.928L32.4708 96.2494L116.198 95.3357L119.628 105.908L35.9671 106.928Z" fill="#3F3D56"/>
<path opacity="0.15" d="M35.9671 106.928L32.4708 96.2494L116.198 95.3357L119.628 105.908L35.9671 106.928Z" fill="black"/>
<path d="M30.3853 106.928L26.889 96.2494L110.616 95.3357L114.046 105.908L30.3853 106.928Z" fill="#3F3D56"/>
<path d="M173.318 90.519C164.661 90.519 157.838 87.0909 152.85 80.2349C147.862 73.3789 145.368 65.0733 145.368 55.3183C145.368 45.4974 147.78 37.2087 152.604 30.4522C157.428 23.6958 164.233 20.3209 173.018 20.3276C182.335 20.3276 189.354 23.8873 194.077 31.0066C198.799 38.1258 201.161 46.3656 201.163 55.7258C201.163 65.0185 198.719 73.1418 193.831 80.0957C188.942 87.0496 182.105 90.524 173.318 90.519ZM173.571 82.8065C179.266 82.8065 183.523 80.3302 186.341 75.3776C189.159 70.425 190.568 64.1815 190.568 56.6471C190.568 48.2606 189.126 41.3936 186.242 36.0461C183.358 30.6986 178.935 28.024 172.972 28.0223C161.64 28.0223 155.973 37.0029 155.973 54.9639C155.973 73.5274 161.838 82.8082 173.566 82.8065H173.571ZM176.423 156.663H163.902L245.873 21.7021H258.158L176.423 156.663ZM248.941 158.048C240.154 158.048 233.303 154.588 228.39 147.67C223.476 140.751 221.009 132.445 220.989 122.751C220.989 112.996 223.384 104.74 228.174 97.9833C232.964 91.2268 239.786 87.852 248.639 87.8587C257.889 87.8587 264.86 91.4184 269.55 98.5376C274.241 105.657 276.587 113.896 276.589 123.254C276.589 132.486 274.16 140.594 269.304 147.579C264.448 154.563 257.659 158.053 248.936 158.048H248.941ZM249.088 150.138C254.756 150.138 258.99 147.704 261.789 142.835C264.588 137.967 265.988 131.749 265.988 124.181C265.988 116.081 264.572 109.288 261.738 103.802C258.905 98.3166 254.491 95.5694 248.497 95.561C237.098 95.561 231.399 104.542 231.399 122.503C231.395 140.928 237.29 150.139 249.083 150.138H249.088Z" fill="#3F3D56"/>
<path d="M173.318 90.519C164.661 90.519 157.838 87.0909 152.85 80.2349C147.862 73.3789 145.368 65.0733 145.368 55.3183C145.368 45.4974 147.78 37.2087 152.604 30.4522C157.428 23.6958 164.233 20.3209 173.018 20.3276C182.335 20.3276 189.354 23.8873 194.077 31.0066C198.799 38.1258 201.161 46.3656 201.163 55.7258C201.163 65.0185 198.719 73.1418 193.831 80.0957C188.942 87.0496 182.105 90.524 173.318 90.519ZM173.571 82.8065C179.266 82.8065 183.523 80.3302 186.341 75.3776C189.159 70.425 190.568 64.1815 190.568 56.6471C190.568 48.2606 189.126 41.3936 186.242 36.0461C183.358 30.6986 178.935 28.024 172.972 28.0223C161.64 28.0223 155.973 37.0029 155.973 54.9639C155.973 73.5274 161.838 82.8082 173.566 82.8065H173.571ZM176.423 156.663H163.902L245.873 21.7021H258.158L176.423 156.663ZM248.941 158.048C240.154 158.048 233.303 154.588 228.39 147.67C223.476 140.751 221.009 132.445 220.989 122.751C220.989 112.996 223.384 104.74 228.174 97.9833C232.964 91.2268 239.786 87.852 248.639 87.8587C257.889 87.8587 264.86 91.4184 269.55 98.5376C274.241 105.657 276.587 113.896 276.589 123.254C276.589 132.486 274.16 140.594 269.304 147.579C264.448 154.563 257.659 158.053 248.936 158.048H248.941ZM249.088 150.138C254.756 150.138 258.99 147.704 261.789 142.835C264.588 137.967 265.988 131.749 265.988 124.181C265.988 116.081 264.572 109.288 261.738 103.802C258.905 98.3166 254.491 95.5694 248.497 95.561C237.098 95.561 231.399 104.542 231.399 122.503C231.395 140.928 237.29 150.139 249.083 150.138H249.088Z" fill="#3F3D56"/>
<path opacity="0.15" d="M173.318 90.519C164.661 90.519 157.838 87.0909 152.85 80.2349C147.862 73.3789 145.368 65.0733 145.368 55.3183C145.368 45.4974 147.78 37.2087 152.604 30.4522C157.428 23.6958 164.233 20.3209 173.018 20.3276C182.335 20.3276 189.354 23.8873 194.077 31.0066C198.799 38.1258 201.161 46.3656 201.163 55.7258C201.163 65.0185 198.719 73.1418 193.831 80.0957C188.942 87.0496 182.105 90.524 173.318 90.519ZM173.571 82.8065C179.266 82.8065 183.523 80.3302 186.341 75.3776C189.159 70.425 190.568 64.1815 190.568 56.6471C190.568 48.2606 189.126 41.3936 186.242 36.0461C183.358 30.6986 178.935 28.024 172.972 28.0223C161.64 28.0223 155.973 37.0029 155.973 54.9639C155.973 73.5274 161.838 82.8082 173.566 82.8065H173.571ZM176.423 156.663H163.902L245.873 21.7021H258.158L176.423 156.663ZM248.941 158.048C240.154 158.048 233.303 154.588 228.39 147.67C223.476 140.751 221.009 132.445 220.989 122.751C220.989 112.996 223.384 104.74 228.174 97.9833C232.964 91.2268 239.786 87.852 248.639 87.8587C257.889 87.8587 264.86 91.4184 269.55 98.5376C274.241 105.657 276.587 113.896 276.589 123.254C276.589 132.486 274.16 140.594 269.304 147.579C264.448 154.563 257.659 158.053 248.936 158.048H248.941ZM249.088 150.138C254.756 150.138 258.99 147.704 261.789 142.835C264.588 137.967 265.988 131.749 265.988 124.181C265.988 116.081 264.572 109.288 261.738 103.802C258.905 98.3166 254.491 95.5694 248.497 95.561C237.098 95.561 231.399 104.542 231.399 122.503C231.395 140.928 237.29 150.139 249.083 150.138H249.088Z" fill="black"/>
<path d="M165.452 90.519C156.795 90.519 149.973 87.0909 144.985 80.2349C139.997 73.3789 137.503 65.0733 137.503 55.3183C137.503 45.4974 139.915 37.2087 144.739 30.4522C149.563 23.6958 156.367 20.3209 165.153 20.3276C174.469 20.3276 181.489 23.8873 186.212 31.0066C190.934 38.1258 193.296 46.3656 193.298 55.7258C193.298 65.0185 190.854 73.1418 185.965 80.0957C181.077 87.0496 174.239 90.524 165.452 90.519ZM165.706 82.8065C171.401 82.8065 175.658 80.3302 178.476 75.3776C181.294 70.425 182.703 64.1815 182.703 56.6471C182.703 48.2606 181.261 41.3936 178.377 36.0461C175.493 30.6986 171.07 28.024 165.107 28.0223C153.774 28.0223 148.108 37.0029 148.108 54.9639C148.108 73.5274 153.972 82.8082 165.701 82.8065H165.706ZM168.558 156.663H156.037L238.008 21.7021H250.293L168.558 156.663ZM241.076 158.048C232.288 158.048 225.438 154.588 220.524 147.67C215.611 140.751 213.144 132.445 213.123 122.751C213.123 112.996 215.519 104.74 220.309 97.9833C225.099 91.2268 231.921 87.852 240.774 87.8587C250.024 87.8587 256.995 91.4184 261.685 98.5376C266.376 105.657 268.722 113.896 268.723 123.254C268.723 132.486 266.295 140.594 261.439 147.579C256.583 154.563 249.793 158.053 241.071 158.048H241.076ZM241.223 150.138C246.891 150.138 251.125 147.704 253.924 142.835C256.723 137.967 258.123 131.749 258.123 124.181C258.123 116.081 256.706 109.288 253.873 103.802C251.04 98.3166 246.624 95.5694 240.627 95.561C229.228 95.561 223.528 104.542 223.528 122.503C223.528 140.928 229.425 150.139 241.218 150.138H241.223Z" fill="#3F3D56"/>
<path d="M192.844 160.05C193.889 158.116 192.701 155.747 191.336 154.021C189.971 152.294 188.307 150.502 188.343 148.303C188.393 145.146 191.753 143.281 194.432 141.605C196.424 140.363 198.262 138.89 199.907 137.216C200.596 136.571 201.165 135.811 201.589 134.969C202.145 133.733 202.127 132.329 202.097 130.977C201.98 126.468 201.757 121.966 201.427 117.471" stroke="#3F3D56" stroke-width="4" stroke-miterlimit="10"/>
<path d="M206.532 117.223C206.494 116.398 206.248 115.596 205.817 114.891C205.387 114.186 204.785 113.6 204.068 113.188L202.962 115.37L202.995 112.727C202.467 112.574 201.918 112.508 201.369 112.532C200.393 112.578 199.453 112.911 198.668 113.49C197.882 114.068 197.286 114.866 196.955 115.783C196.624 116.699 196.573 117.693 196.808 118.638C197.043 119.584 197.554 120.439 198.276 121.095C198.998 121.75 199.898 122.178 200.864 122.323C201.83 122.468 202.817 122.325 203.7 121.91C204.584 121.496 205.325 120.829 205.829 119.995C206.333 119.16 206.577 118.196 206.532 117.223Z" fill="#158AFF"/>
<path d="M197.728 150.568C197.21 151.572 196.361 152.368 195.325 152.822C194.288 153.277 193.127 153.362 192.035 153.063C190.943 152.764 189.988 152.1 189.328 151.182C188.669 150.264 188.346 149.148 188.414 148.02C188.482 146.893 188.936 145.823 189.701 144.99C190.465 144.157 191.494 143.612 192.613 143.446C193.733 143.279 194.876 143.502 195.851 144.077C196.825 144.651 197.572 145.543 197.966 146.602L194.881 149.105L198.281 148.315C198.279 149.099 198.09 149.872 197.728 150.568Z" fill="#158AFF"/>
<path d="M195.29 140.998C194.642 141.028 193.994 140.931 193.384 140.711C192.774 140.492 192.214 140.155 191.734 139.719C191.255 139.284 190.866 138.758 190.59 138.173C190.314 137.588 190.157 136.954 190.126 136.307C190.088 135.536 190.234 134.766 190.553 134.062C190.848 133.404 191.283 132.819 191.83 132.347C192.376 131.875 193.019 131.528 193.714 131.331L193.686 133.356L194.805 131.149C196.113 131.088 197.392 131.548 198.36 132.427C199.328 133.307 199.907 134.534 199.968 135.839C200.029 137.144 199.568 138.42 198.687 139.386C197.805 140.352 196.575 140.929 195.267 140.99L195.29 140.998Z" fill="#158AFF"/>
<path d="M207.275 133.042C206.62 133.086 205.962 132.998 205.341 132.785C204.72 132.572 204.148 132.237 203.658 131.801C203.168 131.365 202.77 130.835 202.488 130.243C202.205 129.652 202.044 129.01 202.013 128.355C201.983 127.701 202.083 127.047 202.309 126.431C202.535 125.816 202.881 125.252 203.328 124.772C203.775 124.291 204.313 123.905 204.912 123.635C205.51 123.365 206.157 123.216 206.813 123.199C207.736 123.154 208.653 123.371 209.457 123.824L208.584 126.208L210.381 124.49C211.345 125.366 211.921 126.589 211.982 127.889C212.004 128.345 211.961 128.802 211.855 129.246C211.609 130.289 211.029 131.225 210.203 131.91C209.376 132.595 208.348 132.992 207.275 133.042Z" fill="#158AFF"/>
<path opacity="0.1" d="M205.867 118.536C204.728 118.66 203.622 119.015 202.477 119.086C201.333 119.156 200.077 118.883 199.354 117.995C198.963 117.519 198.77 116.914 198.441 116.392C198.129 115.907 197.702 115.506 197.197 115.226C196.88 115.85 196.701 116.534 196.67 117.234C196.639 117.933 196.757 118.63 197.018 119.28C197.278 119.93 197.675 120.517 198.181 121.002C198.686 121.487 199.29 121.859 199.951 122.093C200.612 122.327 201.316 122.418 202.015 122.359C202.714 122.301 203.392 122.094 204.005 121.754C204.618 121.413 205.151 120.946 205.569 120.384C205.986 119.822 206.279 119.177 206.428 118.493C206.24 118.503 206.055 118.516 205.867 118.536Z" fill="black"/>
<path opacity="0.1" d="M207.275 133.042C206.424 133.081 205.578 132.9 204.818 132.516C204.058 132.132 203.41 131.559 202.938 130.852C202.465 130.145 202.184 129.328 202.121 128.481C202.058 127.634 202.216 126.785 202.579 126.016C202.97 126.28 203.307 126.617 203.571 127.008C203.923 127.537 204.137 128.15 204.55 128.636C205.311 129.539 206.633 129.833 207.823 129.78C209.013 129.727 210.165 129.387 211.352 129.273C211.517 129.258 211.685 129.248 211.86 129.243C211.614 130.288 211.034 131.224 210.206 131.91C209.379 132.596 208.35 132.993 207.275 133.042Z" fill="black"/>
<path opacity="0.1" d="M195.29 140.998C194.642 141.028 193.994 140.931 193.384 140.711C192.774 140.492 192.214 140.155 191.734 139.719C191.255 139.284 190.866 138.758 190.59 138.173C190.314 137.588 190.157 136.954 190.126 136.307C190.088 135.536 190.234 134.766 190.553 134.062C190.96 134.333 191.313 134.676 191.595 135.075C191.979 135.614 192.22 136.237 192.669 136.735C193.501 137.659 194.901 137.986 196.162 137.955C197.423 137.925 198.563 137.631 199.778 137.538C199.477 138.504 198.884 139.355 198.081 139.974C197.278 140.593 196.303 140.951 195.29 140.998Z" fill="black"/>
<path opacity="0.1" d="M197.728 150.568C197.153 151.694 196.167 152.557 194.972 152.978C193.778 153.4 192.467 153.346 191.31 152.83C190.154 152.314 189.241 151.374 188.76 150.205C188.279 149.035 188.267 147.726 188.726 146.549C189.132 146.815 189.497 147.14 189.809 147.513C190.279 148.085 190.588 148.733 191.131 149.264C192.146 150.252 193.77 150.659 195.221 150.697C196.058 150.704 196.896 150.661 197.728 150.568Z" fill="black"/>
<path d="M269.213 159.797C270.258 157.863 269.071 155.494 267.706 153.767C266.341 152.041 264.676 150.249 264.712 148.049C264.763 144.893 268.122 143.028 270.801 141.352C272.794 140.11 274.632 138.637 276.276 136.963C276.965 136.318 277.534 135.557 277.958 134.715C278.514 133.48 278.496 132.075 278.466 130.724C278.349 126.215 278.126 121.713 277.796 117.218" stroke="#3F3D56" stroke-width="4" stroke-miterlimit="10"/>
<path d="M282.901 116.969C282.863 116.145 282.617 115.343 282.187 114.638C281.756 113.933 281.154 113.347 280.437 112.935L279.331 115.117L279.364 112.474C278.836 112.32 278.287 112.255 277.738 112.279C276.762 112.325 275.822 112.658 275.037 113.237C274.251 113.815 273.655 114.613 273.324 115.53C272.993 116.446 272.942 117.44 273.177 118.385C273.412 119.331 273.923 120.186 274.645 120.841C275.367 121.497 276.268 121.925 277.233 122.07C278.199 122.215 279.186 122.072 280.069 121.657C280.953 121.243 281.694 120.576 282.198 119.742C282.702 118.907 282.947 117.943 282.901 116.969Z" fill="#158AFF"/>
<path d="M274.097 150.315C273.579 151.319 272.73 152.115 271.694 152.569C270.657 153.024 269.496 153.109 268.404 152.81C267.312 152.511 266.357 151.847 265.697 150.929C265.038 150.011 264.715 148.895 264.783 147.767C264.851 146.64 265.305 145.57 266.07 144.737C266.834 143.904 267.863 143.359 268.982 143.193C270.102 143.026 271.245 143.249 272.22 143.824C273.194 144.398 273.941 145.29 274.335 146.349L271.25 148.852L274.65 148.062C274.649 148.846 274.459 149.619 274.097 150.315Z" fill="#158AFF"/>
<path d="M271.659 140.745C271.011 140.775 270.364 140.678 269.754 140.458C269.144 140.239 268.583 139.902 268.103 139.466C267.624 139.031 267.235 138.505 266.959 137.92C266.683 137.334 266.526 136.701 266.496 136.054C266.457 135.283 266.603 134.513 266.922 133.809C267.217 133.151 267.653 132.566 268.199 132.094C268.745 131.622 269.388 131.275 270.083 131.078L270.055 133.103L271.174 130.896H271.187C271.835 130.866 272.482 130.963 273.092 131.182C273.702 131.402 274.263 131.739 274.742 132.174C275.222 132.61 275.61 133.135 275.886 133.721C276.162 134.306 276.32 134.94 276.35 135.586C276.38 136.232 276.283 136.878 276.063 137.487C275.843 138.095 275.505 138.655 275.069 139.133C274.632 139.611 274.105 139.999 273.518 140.274C272.932 140.549 272.296 140.707 271.649 140.737L271.659 140.745Z" fill="#158AFF"/>
<path d="M283.644 132.789C282.989 132.833 282.332 132.745 281.71 132.532C281.089 132.319 280.517 131.984 280.027 131.548C279.537 131.111 279.139 130.582 278.857 129.99C278.575 129.399 278.413 128.757 278.383 128.102C278.352 127.448 278.452 126.794 278.678 126.178C278.904 125.563 279.25 124.999 279.697 124.518C280.144 124.038 280.683 123.652 281.281 123.382C281.88 123.112 282.526 122.963 283.183 122.945C284.105 122.901 285.022 123.117 285.826 123.571L284.954 125.955L286.75 124.236C287.714 125.113 288.29 126.336 288.351 127.636C288.373 128.092 288.331 128.548 288.224 128.992C287.979 130.036 287.399 130.971 286.572 131.657C285.746 132.342 284.718 132.739 283.644 132.789Z" fill="#158AFF"/>
<path opacity="0.1" d="M282.236 118.283C281.097 118.407 279.991 118.762 278.847 118.832C277.702 118.903 276.446 118.63 275.723 117.741C275.333 117.266 275.14 116.661 274.81 116.139C274.498 115.654 274.071 115.253 273.567 114.972C273.25 115.597 273.07 116.281 273.039 116.98C273.008 117.68 273.127 118.377 273.387 119.027C273.648 119.677 274.044 120.264 274.55 120.749C275.056 121.234 275.659 121.606 276.32 121.84C276.981 122.074 277.685 122.165 278.384 122.106C279.083 122.048 279.761 121.841 280.374 121.501C280.987 121.16 281.52 120.693 281.938 120.131C282.356 119.569 282.648 118.924 282.797 118.24C282.609 118.25 282.424 118.263 282.236 118.283Z" fill="black"/>
<path opacity="0.1" d="M283.644 132.789C282.794 132.828 281.947 132.647 281.187 132.263C280.427 131.879 279.78 131.306 279.307 130.599C278.835 129.892 278.553 129.075 278.49 128.228C278.428 127.381 278.585 126.531 278.948 125.763C279.339 126.027 279.676 126.364 279.94 126.755C280.293 127.284 280.506 127.896 280.919 128.382C281.681 129.286 283.002 129.58 284.192 129.527C285.382 129.473 286.534 129.134 287.722 129.02C287.887 129.005 288.054 128.995 288.229 128.99C287.984 130.035 287.403 130.971 286.576 131.657C285.748 132.343 284.719 132.74 283.644 132.789Z" fill="black"/>
<path opacity="0.1" d="M271.659 140.745C271.011 140.775 270.364 140.678 269.754 140.458C269.144 140.239 268.583 139.902 268.103 139.466C267.624 139.031 267.235 138.505 266.959 137.92C266.683 137.334 266.526 136.701 266.496 136.054C266.457 135.283 266.603 134.513 266.922 133.809C267.329 134.08 267.682 134.423 267.965 134.822C268.348 135.361 268.589 135.983 269.038 136.482C269.87 137.406 271.271 137.732 272.531 137.702C273.754 137.677 274.932 137.378 276.147 137.284C275.846 138.251 275.253 139.102 274.45 139.721C273.647 140.34 272.672 140.698 271.659 140.745Z" fill="black"/>
<path opacity="0.1" d="M274.097 150.315C273.522 151.441 272.536 152.304 271.341 152.725C270.147 153.146 268.836 153.093 267.679 152.577C266.523 152.061 265.61 151.121 265.129 149.951C264.648 148.782 264.636 147.473 265.095 146.295C265.502 146.562 265.867 146.887 266.178 147.26C266.648 147.832 266.957 148.48 267.5 149.011C268.515 149.998 270.139 150.406 271.59 150.444C272.428 150.451 273.265 150.408 274.097 150.315Z" fill="black"/>
<path d="M27.8913 156.506C26.8459 154.572 28.0333 152.203 29.3984 150.477C30.7634 148.751 32.4277 146.959 32.3922 144.759C32.3415 141.603 28.9823 139.737 26.303 138.062C24.3103 136.82 22.4724 135.346 20.8278 133.673C20.139 133.028 19.5696 132.267 19.1456 131.425C18.59 130.19 18.6077 128.785 18.6382 127.433C18.7549 122.924 18.9781 118.422 19.308 113.927" stroke="#3F3D56" stroke-width="4" stroke-miterlimit="10"/>
<path d="M14.2031 113.679C14.2413 112.854 14.487 112.052 14.9175 111.347C15.3481 110.642 15.9496 110.057 16.6667 109.644L17.773 111.826L17.74 109.184C18.2676 109.03 18.8171 108.964 19.3663 108.989C20.3417 109.034 21.2817 109.368 22.0673 109.946C22.853 110.525 23.449 111.323 23.78 112.239C24.1111 113.156 24.1623 114.149 23.9272 115.095C23.6921 116.04 23.1813 116.895 22.4593 117.551C21.7373 118.207 20.8365 118.634 19.8709 118.78C18.9054 118.925 17.9183 118.781 17.0346 118.367C16.1509 117.952 15.4102 117.286 14.9062 116.451C14.4022 115.617 14.1575 114.652 14.2031 113.679Z" fill="#158AFF"/>
<path d="M23.0072 147.024C23.5253 148.029 24.3737 148.825 25.4101 149.279C26.4466 149.733 27.6081 149.818 28.6999 149.519C29.7917 149.221 30.7474 148.557 31.4067 147.639C32.0659 146.72 32.3888 145.604 32.321 144.477C32.2532 143.349 31.7989 142.279 31.0343 141.447C30.2698 140.614 29.2414 140.068 28.1216 139.902C27.0019 139.736 25.8589 139.959 24.8843 140.533C23.9097 141.108 23.1627 141.999 22.7687 143.058L25.8539 145.561L22.4541 144.772C22.4555 145.556 22.6452 146.328 23.0072 147.024Z" fill="#158AFF"/>
<path d="M25.4454 137.454C26.0932 137.484 26.7405 137.387 27.3506 137.168C27.9606 136.948 28.5214 136.611 29.0008 136.176C29.4803 135.74 29.869 135.215 30.1449 134.629C30.4208 134.044 30.5783 133.41 30.6086 132.764C30.647 131.992 30.5009 131.223 30.1824 130.519C29.8874 129.861 29.4515 129.275 28.9053 128.803C28.3592 128.332 27.716 127.985 27.021 127.788L27.0489 129.813L25.93 127.605C24.6219 127.544 23.3431 128.004 22.3748 128.884C21.4065 129.763 20.8281 130.991 20.7669 132.296C20.7056 133.601 21.1666 134.876 22.0483 135.842C22.9299 136.808 24.1602 137.385 25.4683 137.446L25.4454 137.454Z" fill="#158AFF"/>
<path d="M13.4597 129.499C14.1151 129.542 14.7726 129.455 15.3937 129.242C16.0149 129.028 16.5872 128.694 17.0771 128.257C17.5671 127.821 17.9649 127.291 18.2472 126.7C18.5296 126.108 18.6908 125.466 18.7215 124.812C18.7522 124.157 18.6518 123.503 18.4261 122.888C18.2003 122.272 17.8538 121.708 17.4069 121.228C16.9599 120.748 16.4215 120.361 15.823 120.091C15.2245 119.821 14.5781 119.673 13.9215 119.655C13.003 119.613 12.0911 119.829 11.2904 120.28L12.1632 122.665L10.3542 120.953C9.39193 121.828 8.81627 123.048 8.75325 124.345C8.73078 124.801 8.7735 125.258 8.88011 125.702C9.12565 126.746 9.70561 127.681 10.532 128.366C11.3585 129.051 12.3863 129.449 13.4597 129.499Z" fill="#158AFF"/>
<path opacity="0.1" d="M14.8678 114.993C16.007 115.117 17.1133 115.471 18.2575 115.542C19.4018 115.613 20.6577 115.339 21.3808 114.451C21.7715 113.975 21.9643 113.37 22.2942 112.849C22.6057 112.363 23.0328 111.962 23.5374 111.682C23.8543 112.306 24.0343 112.991 24.0652 113.69C24.0962 114.389 23.9774 115.087 23.7169 115.737C23.4563 116.386 23.06 116.973 22.5543 117.458C22.0485 117.943 21.445 118.315 20.7839 118.549C20.1228 118.783 19.4192 118.874 18.7202 118.816C18.0211 118.757 17.3426 118.551 16.7298 118.21C16.1169 117.87 15.5839 117.403 15.1662 116.84C14.7484 116.278 14.4556 115.634 14.3071 114.95C14.4949 114.96 14.6801 114.972 14.8678 114.993Z" fill="black"/>
<path opacity="0.1" d="M13.4598 129.499C14.3106 129.537 15.157 129.356 15.9169 128.972C16.6768 128.588 17.3244 128.015 17.7969 127.308C18.2694 126.602 18.5508 125.785 18.6137 124.937C18.6767 124.09 18.519 123.241 18.1561 122.472C17.765 122.737 17.4282 123.073 17.1641 123.464C16.8114 123.993 16.5983 124.606 16.1847 125.092C15.4236 125.995 14.1017 126.289 12.9118 126.236C11.7218 126.183 10.57 125.844 9.38256 125.73C9.21764 125.715 9.05019 125.704 8.87512 125.699C9.12043 126.744 9.70093 127.681 10.5284 128.366C11.3559 129.052 12.3852 129.45 13.4598 129.499Z" fill="black"/>
<path opacity="0.1" d="M25.4454 137.454C26.0932 137.484 26.7405 137.387 27.3506 137.168C27.9606 136.948 28.5213 136.611 29.0008 136.176C29.4803 135.74 29.869 135.215 30.1449 134.629C30.4208 134.044 30.5783 133.41 30.6086 132.764C30.647 131.992 30.5009 131.223 30.1824 130.519C29.7752 130.789 29.4217 131.133 29.1396 131.531C28.7565 132.07 28.5154 132.693 28.0663 133.192C27.2341 134.116 25.8336 134.442 24.5726 134.412C23.3497 134.386 22.1725 134.088 20.9572 133.994C21.2584 134.961 21.8508 135.812 22.6539 136.431C23.4569 137.05 24.4316 137.407 25.4454 137.454Z" fill="black"/>
<path opacity="0.1" d="M23.0072 147.024C23.5817 148.151 24.5683 149.014 25.7628 149.435C26.9573 149.856 28.2683 149.803 29.4247 149.286C30.581 148.77 31.4942 147.83 31.9752 146.661C32.4563 145.492 32.4684 144.183 32.0091 143.005C31.6027 143.272 31.2376 143.597 30.9257 143.969C30.4564 144.541 30.1468 145.189 29.6039 145.721C28.589 146.708 26.9652 147.115 25.5139 147.153C24.6765 147.16 23.8395 147.117 23.0072 147.024Z" fill="black"/>
<path d="M170.879 132.787C170.884 132.173 170.745 131.567 170.472 131.016C170.2 130.466 169.802 129.987 169.311 129.618C169.25 127.297 167.591 125.401 165.457 125.107C165.292 124.319 164.922 123.587 164.384 122.986C163.846 122.386 163.159 121.937 162.392 121.685C162.206 121.626 162.015 121.581 161.822 121.551H161.766L161.667 121.538H161.583H161.499H161.39H161.324H161.144C158.967 121.538 157.156 123.199 156.783 125.388C155.375 125.064 154.083 125.484 153.852 126.373C153.793 126.608 153.806 126.856 153.89 127.084C154.129 127.772 154.905 128.431 155.958 128.757L156.095 128.798C156.164 128.818 156.232 128.833 156.301 128.848H156.346C155.959 129.672 155.904 130.612 156.193 131.475C156.481 132.337 157.091 133.056 157.896 133.483C157.865 133.5 157.834 133.519 157.805 133.541C157.675 133.66 157.571 133.805 157.501 133.966C157.246 134.412 157.049 134.887 156.912 135.381C156.811 135.804 156.793 136.247 156.658 136.664C156.427 137.424 155.834 138.089 155.765 138.897C155.735 139.256 155.793 139.679 155.537 139.924C155.473 139.979 155.405 140.029 155.334 140.074C155.154 140.196 155.002 140.355 154.887 140.54C154.813 140.692 154.712 140.831 154.591 140.95C154.36 141.124 153.979 141.107 153.865 141.375C153.751 141.643 154.045 141.96 153.977 142.253C153.921 142.491 153.659 142.6 153.469 142.759C153.256 142.99 153.108 143.272 153.038 143.577C152.659 143.65 152.268 143.638 151.894 143.544C151.52 143.449 151.172 143.272 150.874 143.028C150.976 143.288 151.051 143.559 151.097 143.835C150.795 143.514 150.298 143.42 149.93 143.253C149.455 143.036 149.032 142.722 148.687 142.332L149.351 142.24L146.408 137.786L145.54 137.608L146.319 139.099C146.256 139.13 146.2 139.174 146.156 139.23C146.112 139.285 146.081 139.349 146.066 139.418C146.024 139.584 146.013 139.755 146.035 139.924C146.076 140.324 146.143 140.721 146.236 141.112L146.461 142.16C146.481 142.258 146.505 142.355 146.535 142.451C146.241 142.44 145.947 142.473 145.662 142.549C145.079 142.334 144.471 142.19 143.853 142.122C143.717 142.098 143.578 142.105 143.445 142.142C143.294 142.211 143.163 142.317 143.064 142.451C142.557 143.036 142.106 143.668 141.719 144.339C140.139 147.083 138.028 149.477 136.051 151.958C134.686 152.512 133.311 153.038 131.934 153.56L128.973 154.686C128.381 154.911 127.767 155.142 127.138 155.101C126.854 155.084 126.509 155.041 126.349 155.281C126.271 155.4 126.211 155.53 126.169 155.666C126.065 155.666 125.961 155.691 125.865 155.696H125.847C125.659 155.23 125.497 154.732 125.136 154.393C125.064 154.404 124.995 154.433 124.937 154.477C124.878 154.521 124.832 154.579 124.802 154.646C124.73 154.777 124.687 154.922 124.606 155.043C124.446 155.276 124.17 155.39 123.972 155.587C123.774 155.785 123.65 156.093 123.437 156.286C123.138 156.502 122.788 156.637 122.422 156.678C121.872 156.807 121.343 157.008 120.846 157.276C120.663 157.388 120.467 157.478 120.262 157.544C120.038 157.587 119.807 157.595 119.58 157.567L118.012 157.453C117.872 157.435 117.731 157.441 117.593 157.47C117.432 157.53 117.294 157.64 117.203 157.785C117.111 157.931 117.07 158.102 117.086 158.273C117.105 158.442 117.159 158.606 117.244 158.754C117.329 158.902 117.444 159.031 117.581 159.133C117.853 159.332 118.154 159.489 118.474 159.597C119.836 160.123 121.241 160.534 122.673 160.824V161.141C123.665 161.639 124.761 161.899 125.872 161.9C125.954 161.906 126.036 161.892 126.111 161.857C126.213 161.78 126.285 161.668 126.311 161.543C126.644 160.55 126.854 159.521 126.938 158.478C127.134 158.465 127.326 158.416 127.504 158.334C128.044 158.187 128.579 158.556 129.135 158.617C129.82 158.69 130.457 158.293 131.104 158.048C131.198 158.012 131.292 157.982 131.385 157.951C131.201 158.19 130.983 158.4 130.739 158.577C130.47 158.769 130.168 158.911 129.904 159.111C129.684 159.31 129.449 159.492 129.201 159.655C129.026 159.736 128.845 159.806 128.661 159.862C128.393 159.96 128.137 160.088 127.899 160.245C127.686 160.37 127.506 160.543 127.372 160.751C127.304 160.848 127.263 160.96 127.251 161.078C127.24 161.195 127.259 161.313 127.306 161.421C127.353 161.529 127.427 161.624 127.522 161.695C127.616 161.766 127.727 161.813 127.844 161.829C128.056 161.867 128.272 161.873 128.485 161.847C129.333 161.784 130.178 161.705 131.023 161.629C131.38 161.605 131.736 161.555 132.086 161.477C132.271 161.432 132.454 161.371 132.639 161.323C132.955 161.24 133.279 161.191 133.606 161.179C133.7 161.171 133.796 161.181 133.887 161.206C134.085 161.27 134.225 161.46 134.425 161.51C134.555 161.523 134.686 161.505 134.808 161.457C135.427 161.323 136.058 161.256 136.691 161.257C136.967 161.242 137.292 161.189 137.421 160.933C137.579 160.617 137.315 160.262 137.211 159.921C137.158 159.703 137.129 159.481 137.125 159.257C137.076 158.706 136.918 158.17 136.658 157.681C136.52 157.452 136.403 157.212 136.31 156.962C137.523 156.502 138.683 155.914 139.771 155.21C140.395 154.823 141.039 154.405 141.745 154.263C142.567 154.099 143.414 154.317 144.224 154.549C146.151 155.106 148.048 155.766 149.904 156.526C150.792 156.888 151.68 157.273 152.589 157.539C152.854 157.896 153.175 158.209 153.54 158.465C154.149 158.858 154.892 158.971 155.608 159.027C156.575 159.115 157.545 159.152 158.516 159.136C159.256 159.123 160.02 159.073 160.682 158.736C160.844 158.653 160.996 158.553 161.136 158.437C161.644 158.528 162.164 158.258 162.562 157.911C163.09 157.463 163.47 156.868 163.653 156.202C163.887 155.289 163.707 154.223 164.27 153.476C164.42 153.276 164.615 153.114 164.762 152.912C164.943 152.641 165.032 152.319 165.016 151.993L165.041 151.955C165.169 151.661 165.254 151.351 165.295 151.034C165.362 150.786 165.446 150.543 165.549 150.307C165.835 149.601 166.084 148.88 166.295 148.148C166.441 147.663 166.556 147.168 166.64 146.667C166.701 146.268 166.736 145.865 166.769 145.463C166.81 144.833 166.933 144.211 167.134 143.612C167.635 142.184 167.918 140.69 167.974 139.178C167.974 139.147 167.974 139.12 167.974 139.089C168.711 139.009 169.391 138.657 169.881 138.103C170.371 137.548 170.637 136.831 170.626 136.092C170.626 135.647 170.533 135.206 170.352 134.799C170.702 134.186 170.884 133.492 170.879 132.787ZM156.531 150.178C156.575 150.333 156.625 150.487 156.676 150.641C156.443 150.411 156.212 150.173 155.976 149.945C156.07 149.973 156.164 150.004 156.255 150.036C156.352 150.075 156.446 150.122 156.534 150.178H156.531ZM155.395 149.419C154.01 148.219 152.406 147.288 150.988 146.128C151.749 146.511 152.51 146.954 153.271 147.379C154.158 147.885 155.054 148.369 155.961 148.832C155.812 149.057 155.623 149.252 155.402 149.409L155.395 149.419ZM155.986 146.397L156.052 146.328C156.052 146.498 156.052 146.657 156.052 146.802C155.928 146.761 155.798 146.721 155.679 146.675C155.789 146.586 155.892 146.49 155.989 146.387L155.986 146.397ZM143.79 149.647C144.36 149.003 144.856 148.297 145.269 147.543C145.817 148.503 146.71 149.194 147.471 149.996C146.248 149.824 145.023 149.69 143.792 149.637L143.79 149.647Z" fill="url(#paint0_linear_527_477)"/>
<path d="M145.769 137.978L146.644 138.155L149.625 142.549L148.308 142.726L145.769 137.978Z" fill="#2F2E41"/>
<path d="M124.571 155.813C124.807 156.591 125.097 157.353 125.441 158.091C126.429 157.884 127.4 157.608 128.348 157.263C128.165 156.978 127.963 156.705 127.745 156.445C127.512 156.187 127.233 155.973 126.923 155.815C126.621 155.683 126.248 155.782 125.925 155.8C125.474 155.817 125.022 155.821 124.571 155.813Z" fill="#FBBEBE"/>
<path d="M126.928 156.987C126.435 156.833 126.133 156.336 125.933 155.858C125.733 155.38 125.57 154.858 125.19 154.506C125.117 154.518 125.049 154.547 124.99 154.591C124.932 154.635 124.885 154.693 124.855 154.76C124.781 154.886 124.738 155.03 124.654 155.152C124.497 155.38 124.218 155.491 124.017 155.686C123.817 155.881 123.693 156.177 123.477 156.372C123.178 156.587 122.828 156.721 122.462 156.762C121.909 156.887 121.375 157.084 120.874 157.349C120.688 157.456 120.491 157.541 120.285 157.602C120.059 157.645 119.827 157.653 119.598 157.625L118.017 157.511C117.877 157.494 117.734 157.5 117.596 157.531C117.435 157.587 117.297 157.695 117.205 157.839C117.113 157.982 117.072 158.152 117.088 158.321C117.109 158.49 117.165 158.652 117.253 158.798C117.34 158.944 117.457 159.07 117.596 159.169C117.871 159.365 118.173 159.518 118.494 159.624C119.871 160.141 121.288 160.545 122.731 160.832V161.143C123.734 161.638 124.837 161.898 125.956 161.902C126.043 161.91 126.13 161.895 126.21 161.859C126.312 161.784 126.385 161.675 126.413 161.551C126.792 160.445 127.013 159.291 127.07 158.123C127.099 157.828 127.077 157.53 127.004 157.243C126.917 156.959 127.212 157.078 126.938 156.967" fill="#2F2E41"/>
<path d="M157.232 151.044C152.546 151.327 147.918 149.955 143.224 149.809C142.641 149.773 142.057 149.811 141.483 149.92C140.886 150.08 140.307 150.304 139.758 150.588C137.244 151.755 134.641 152.722 132.04 153.689L129.056 154.798C128.458 155.018 127.841 155.243 127.204 155.205C126.92 155.187 126.572 155.144 126.41 155.382C125.925 156.099 126.156 157.154 126.476 157.959C126.58 158.212 126.755 158.503 127.034 158.533C127.232 158.52 127.425 158.471 127.605 158.389C128.148 158.245 128.691 158.609 129.249 158.668C129.942 158.741 130.584 158.349 131.236 158.108C132.317 157.711 133.499 157.724 134.636 157.534C136.544 157.217 138.309 156.334 139.964 155.327C140.593 154.944 141.232 154.534 141.953 154.395C142.782 154.233 143.638 154.446 144.452 154.676C146.394 155.224 148.305 155.874 150.178 156.622C151.153 157.045 152.153 157.409 153.172 157.711C155.393 158.294 157.743 158.158 159.881 157.321C160.642 157.025 161.443 156.503 161.487 155.696C161.512 155.235 161.154 154.83 160.916 154.43C160.761 154.177 160.609 153.924 160.441 153.684C159.634 152.509 158.655 150.958 157.232 151.044Z" fill="#2F2E41"/>
<path opacity="0.1" d="M157.232 151.044C152.546 151.327 147.918 149.955 143.224 149.809C142.641 149.773 142.057 149.811 141.483 149.92C140.886 150.08 140.307 150.304 139.758 150.588C137.244 151.755 134.641 152.722 132.04 153.689L129.056 154.798C128.458 155.018 127.841 155.243 127.204 155.205C126.92 155.187 126.572 155.144 126.41 155.382C125.925 156.099 126.156 157.154 126.476 157.959C126.58 158.212 126.755 158.503 127.034 158.533C127.232 158.52 127.425 158.471 127.605 158.389C128.148 158.245 128.691 158.609 129.249 158.668C129.942 158.741 130.584 158.349 131.236 158.108C132.317 157.711 133.499 157.724 134.636 157.534C136.544 157.217 138.309 156.334 139.964 155.327C140.593 154.944 141.232 154.534 141.953 154.395C142.782 154.233 143.638 154.446 144.452 154.676C146.394 155.224 148.305 155.874 150.178 156.622C151.153 157.045 152.153 157.409 153.172 157.711C155.393 158.294 157.743 158.158 159.881 157.321C160.642 157.025 161.443 156.503 161.487 155.696C161.512 155.235 161.154 154.83 160.916 154.43C160.761 154.177 160.609 153.924 160.441 153.684C159.634 152.509 158.655 150.958 157.232 151.044Z" fill="black"/>
<path d="M133.565 156.04C134.299 156.288 135.038 156.518 135.782 156.729C136.201 156.043 136.983 155.567 137.16 154.785C137.17 154.751 137.17 154.715 137.16 154.681C137.141 154.648 137.112 154.621 137.076 154.605C136.542 154.311 135.948 154.138 135.338 154.099C134.856 154.069 134.638 154.57 134.42 154.922C134.344 155.063 133.76 156.106 133.565 156.04Z" fill="#FBBEBE"/>
<path d="M134.598 155.539C134.378 155.503 134.169 155.421 133.984 155.3C133.798 155.178 133.64 155.019 133.519 154.833C133.415 154.653 133.306 154.41 133.098 154.423C132.89 154.436 132.819 154.663 132.776 154.853C132.635 155.562 132.432 156.258 132.169 156.931C131.904 157.607 131.455 158.195 130.873 158.63C130.601 158.817 130.3 158.959 130.033 159.156C129.811 159.354 129.574 159.533 129.323 159.693C129.146 159.773 128.964 159.841 128.777 159.895C128.504 159.991 128.242 160.117 127.998 160.272C127.784 160.397 127.603 160.571 127.468 160.779C127.403 160.884 127.365 161.004 127.357 161.127C127.349 161.251 127.372 161.374 127.422 161.487C127.477 161.579 127.551 161.658 127.638 161.72C127.725 161.781 127.825 161.824 127.93 161.844C128.144 161.88 128.362 161.885 128.577 161.859C129.432 161.796 130.284 161.72 131.137 161.644C131.498 161.622 131.856 161.573 132.21 161.497C132.398 161.452 132.58 161.391 132.766 161.343C133.085 161.262 133.413 161.214 133.743 161.201C133.838 161.194 133.934 161.204 134.027 161.229C134.225 161.292 134.364 161.482 134.567 161.528C134.698 161.541 134.83 161.524 134.953 161.477C135.577 161.345 136.213 161.279 136.851 161.28C137.13 161.265 137.459 161.211 137.586 160.961C137.746 160.65 137.482 160.3 137.376 159.966C137.323 159.752 137.293 159.533 137.287 159.313C137.239 158.769 137.079 158.241 136.818 157.761C136.599 157.362 136.31 156.921 136.455 156.496C136.533 156.363 136.582 156.216 136.599 156.063C136.564 155.377 134.983 155.63 134.598 155.539Z" fill="#2F2E41"/>
<path d="M150.206 143.547C149.376 143.181 148.711 142.522 148.339 141.696C148.263 141.519 148.197 141.334 148.123 141.155C147.876 140.56 147.494 140.032 147.007 139.611C146.955 139.553 146.891 139.508 146.819 139.478C146.748 139.448 146.671 139.433 146.593 139.436C146.518 139.458 146.451 139.5 146.397 139.557C146.344 139.614 146.306 139.684 146.289 139.76C146.245 139.925 146.234 140.097 146.256 140.266C146.299 140.659 146.367 141.049 146.459 141.433L146.687 142.466C146.716 142.624 146.764 142.779 146.829 142.926C146.927 143.1 147.056 143.253 147.21 143.379C147.418 143.572 147.628 143.757 147.842 143.936C147.959 144.042 148.088 144.136 148.225 144.215C148.45 144.321 148.69 144.391 148.938 144.422C149.869 144.594 150.815 144.842 151.599 145.435C151.599 145.435 151.599 144.744 151.581 144.675C151.572 144.475 151.503 144.282 151.384 144.121C151.089 143.805 150.582 143.711 150.206 143.547Z" fill="#FBBEBE"/>
<path opacity="0.1" d="M150.206 143.547C149.376 143.181 148.711 142.522 148.339 141.696C148.263 141.519 148.197 141.334 148.123 141.155C147.876 140.56 147.494 140.032 147.007 139.611C146.955 139.553 146.891 139.508 146.819 139.478C146.748 139.448 146.671 139.433 146.593 139.436C146.518 139.458 146.451 139.5 146.397 139.557C146.344 139.614 146.306 139.684 146.289 139.76C146.245 139.925 146.234 140.097 146.256 140.266C146.299 140.659 146.367 141.049 146.459 141.433L146.687 142.466C146.716 142.624 146.764 142.779 146.829 142.926C146.927 143.1 147.056 143.253 147.21 143.379C147.418 143.572 147.628 143.757 147.842 143.936C147.959 144.042 148.088 144.136 148.225 144.215C148.45 144.321 148.69 144.391 148.938 144.422C149.869 144.594 150.815 144.842 151.599 145.435C151.599 145.435 151.599 144.744 151.581 144.675C151.572 144.475 151.503 144.282 151.384 144.121C151.089 143.805 150.582 143.711 150.206 143.547Z" fill="black"/>
<path d="M159.746 135.649C160.375 135.649 160.885 135.137 160.885 134.505C160.885 133.873 160.375 133.361 159.746 133.361C159.117 133.361 158.607 133.873 158.607 134.505C158.607 135.137 159.117 135.649 159.746 135.649Z" fill="#2F2E41"/>
<path d="M159.041 133.814C158.735 133.745 158.414 133.791 158.14 133.943C158.008 134.06 157.904 134.203 157.833 134.364C157.577 134.801 157.377 135.268 157.239 135.756C157.138 136.173 157.12 136.609 156.986 137.021C156.752 137.781 156.154 138.426 156.085 139.218C156.055 139.573 156.113 139.99 155.854 140.231C155.79 140.284 155.721 140.333 155.649 140.375C155.468 140.496 155.315 140.653 155.2 140.836C155.122 141 155.014 141.149 154.882 141.274C154.649 141.446 154.266 141.428 154.152 141.694C154.038 141.959 154.332 142.268 154.263 142.557C154.207 142.792 153.944 142.901 153.756 143.063C153.542 143.289 153.392 143.568 153.322 143.87C152.941 143.942 152.549 143.93 152.173 143.837C151.796 143.743 151.445 143.569 151.143 143.326C151.46 144.108 151.467 144.972 151.48 145.814C151.517 146.084 151.445 146.357 151.28 146.574C152.188 146.594 153.071 146.827 153.956 147.037C154.335 147.164 154.745 147.164 155.123 147.037C155.326 146.928 155.507 146.784 155.659 146.612C156.141 146.123 156.646 145.599 156.762 144.918C156.793 144.535 156.8 144.151 156.783 143.767C156.829 143.293 156.927 142.825 157.075 142.372C157.329 141.431 157.499 140.47 157.582 139.499C157.635 138.899 158.153 138.418 158.427 137.882C158.934 136.869 159.467 135.819 159.508 134.685C159.543 134.315 159.416 133.862 159.041 133.814Z" fill="#2F2E41"/>
<path opacity="0.1" d="M159.041 133.814C158.735 133.745 158.414 133.791 158.14 133.943C158.008 134.06 157.904 134.203 157.833 134.364C157.577 134.801 157.377 135.268 157.239 135.756C157.138 136.173 157.12 136.609 156.986 137.021C156.752 137.781 156.154 138.426 156.085 139.218C156.055 139.573 156.113 139.99 155.854 140.231C155.79 140.284 155.721 140.333 155.649 140.375C155.468 140.496 155.315 140.653 155.2 140.836C155.122 141 155.014 141.149 154.882 141.274C154.649 141.446 154.266 141.428 154.152 141.694C154.038 141.959 154.332 142.268 154.263 142.557C154.207 142.792 153.944 142.901 153.756 143.063C153.542 143.289 153.392 143.568 153.322 143.87C152.941 143.942 152.549 143.93 152.173 143.837C151.796 143.743 151.445 143.569 151.143 143.326C151.46 144.108 151.467 144.972 151.48 145.814C151.517 146.084 151.445 146.357 151.28 146.574C152.188 146.594 153.071 146.827 153.956 147.037C154.335 147.164 154.745 147.164 155.123 147.037C155.326 146.928 155.507 146.784 155.659 146.612C156.141 146.123 156.646 145.599 156.762 144.918C156.793 144.535 156.8 144.151 156.783 143.767C156.829 143.293 156.927 142.825 157.075 142.372C157.329 141.431 157.499 140.47 157.582 139.499C157.635 138.899 158.153 138.418 158.427 137.882C158.934 136.869 159.467 135.819 159.508 134.685C159.543 134.315 159.416 133.862 159.041 133.814Z" fill="black"/>
<path d="M157.975 152.028C156.998 151.565 156.285 150.702 155.496 149.963C153.989 148.551 152.147 147.553 150.564 146.23C149.516 145.354 148.577 144.334 147.423 143.6C146.408 142.954 145.256 142.551 144.059 142.423C143.922 142.399 143.781 142.406 143.648 142.443C143.496 142.511 143.365 142.615 143.265 142.747C142.753 143.322 142.298 143.945 141.907 144.607C139.9 148.004 137.051 150.862 134.689 154.023C134.613 154.097 134.568 154.198 134.563 154.304C134.558 154.41 134.593 154.514 134.661 154.595L135.14 155.534C135.409 156.058 135.841 156.671 136.409 156.567C136.67 156.492 136.903 156.343 137.081 156.139L139.238 154.081L141.499 151.925C142.823 150.659 144.17 149.368 145.036 147.753C145.71 148.92 146.908 149.685 147.73 150.755C148.042 151.16 148.296 151.608 148.575 152.039C149.024 152.73 149.531 153.378 150.039 154.023L152.634 157.326C152.962 157.797 153.368 158.208 153.834 158.541C154.448 158.928 155.197 159.032 155.92 159.095C156.894 159.184 157.872 159.22 158.85 159.202C159.596 159.189 160.373 159.141 161.032 158.809C161.692 158.478 162.253 157.797 162.217 157.055C162.177 156.667 162.05 156.292 161.844 155.959C160.928 154.263 159.716 152.846 157.975 152.028Z" fill="#2F2E41"/>
<path d="M160.446 136.176C160.93 136.176 161.322 135.783 161.322 135.298C161.322 134.812 160.93 134.419 160.446 134.419C159.963 134.419 159.571 134.812 159.571 135.298C159.571 135.783 159.963 136.176 160.446 136.176Z" fill="#E8E8F0"/>
<path d="M160.254 134.637C160.451 135.03 160.486 135.484 160.35 135.903C160.215 136.314 160.025 136.705 159.787 137.067C159.581 137.44 159.336 137.79 159.053 138.11C160.406 138.176 161.718 137.646 162.91 137.004C163.872 136.497 164.831 135.852 165.343 134.888C165.191 134.924 165.032 134.928 164.878 134.9C164.724 134.871 164.577 134.811 164.448 134.723C164.189 134.544 163.958 134.329 163.76 134.085L163.083 133.326C162.923 133.159 162.782 132.975 162.664 132.777C162.516 132.507 162.453 132.199 162.484 131.893C162.214 132.175 161.913 132.425 161.586 132.637C161.101 132.954 160.571 133.182 160.081 133.493C159.908 133.604 159.525 133.784 159.624 133.999C159.723 134.214 160.117 134.394 160.254 134.637Z" fill="#FBBEBE"/>
<path opacity="0.1" d="M160.254 134.637C160.451 135.03 160.486 135.484 160.35 135.903C160.215 136.314 160.025 136.705 159.787 137.067C159.581 137.44 159.336 137.79 159.053 138.11C160.406 138.176 161.718 137.646 162.91 137.004C163.872 136.497 164.831 135.852 165.343 134.888C165.191 134.924 165.032 134.928 164.878 134.9C164.724 134.871 164.577 134.811 164.448 134.723C164.189 134.544 163.958 134.329 163.76 134.085L163.083 133.326C162.923 133.159 162.782 132.975 162.664 132.777C162.516 132.507 162.453 132.199 162.484 131.893C162.214 132.175 161.913 132.425 161.586 132.637C161.101 132.954 160.571 133.182 160.081 133.493C159.908 133.604 159.525 133.784 159.624 133.999C159.723 134.214 160.117 134.394 160.254 134.637Z" fill="black"/>
<path d="M160.271 134.769C160.135 134.961 160.061 135.192 160.061 135.428C160.061 135.664 160.135 135.894 160.271 136.087C160.309 136.135 160.454 136.437 160.525 136.439C160.585 136.434 160.64 136.406 160.68 136.361C160.986 136.041 161.273 135.703 161.537 135.348C161.805 134.989 162.191 134.736 162.628 134.634C163.159 134.551 163.669 134.832 164.133 135.1C164.332 135.199 164.506 135.343 164.64 135.52C164.738 135.696 164.796 135.892 164.81 136.092C164.944 137.299 164.994 138.513 164.963 139.727C164.987 140.602 164.929 141.477 164.79 142.342C164.704 142.787 164.574 143.223 164.513 143.673C164.469 144.07 164.451 144.469 164.46 144.868V146.538C164.449 146.844 164.471 147.151 164.526 147.452C164.631 147.812 164.754 148.166 164.894 148.513C165.018 148.926 165.103 149.349 165.148 149.778L165.376 151.507C165.45 152.054 165.503 152.649 165.171 153.086C165.023 153.286 164.826 153.443 164.663 153.641C164.092 154.365 164.283 155.415 164.029 156.314C163.841 156.973 163.457 157.56 162.928 157.997C162.524 158.339 162.002 158.609 161.479 158.503C160.776 158.372 160.353 157.64 160.16 156.949C159.967 156.258 159.906 155.504 159.482 154.924C159.142 154.446 158.617 154.147 158.143 153.805C157.668 153.464 157.201 153.026 157.097 152.449C157.052 152.195 157.08 151.942 157.054 151.689C157.016 151.367 156.892 151.06 156.695 150.802C156.498 150.544 156.234 150.343 155.933 150.221C155.572 150.082 155.126 150.031 154.918 149.715C155.434 149.391 155.811 148.887 155.973 148.3C156.131 147.722 156.216 147.127 156.227 146.528L156.349 144.519C156.402 143.62 156.427 142.729 156.823 141.922C157.001 141.562 157.222 141.223 157.404 140.866C157.649 140.365 157.858 139.848 158.028 139.317C158.315 138.494 158.604 137.669 158.861 136.836C158.963 136.433 159.117 136.044 159.317 135.68C159.553 135.3 159.865 134.844 160.271 134.769Z" fill="#E8E8F0"/>
<path d="M155.798 147.827L156.331 147.844L156.445 147.042C156.46 146.882 156.498 146.724 156.557 146.574C156.645 146.415 156.748 146.266 156.864 146.126C157.389 145.387 157.351 144.405 157.48 143.506C157.653 142.309 158.155 141.185 158.653 140.081L159.688 137.781C159.78 137.591 159.854 137.394 159.908 137.191C159.954 136.967 159.975 136.739 159.972 136.51C159.972 136.156 160.089 134.862 160.096 134.505C160.096 134.374 159.807 134.447 159.746 134.331C159.617 134.078 159.439 134.766 159.195 134.918C158.966 135.093 158.799 135.337 158.718 135.614C158.495 136.194 158.358 136.804 158.15 137.386C157.968 137.982 157.635 138.521 157.183 138.953C156.973 139.14 156.727 139.287 156.526 139.484C155.882 140.119 155.821 141.122 155.798 142.015C155.783 142.57 155.679 147.827 155.798 147.827Z" fill="#2F2E41"/>
<path d="M163.473 133.809C162.966 134.012 162.671 134.569 162.527 135.11C162.382 135.652 162.321 136.224 162.042 136.705C161.393 137.834 159.736 138.163 159.277 139.383C159.16 139.795 159.098 140.22 159.092 140.648C159.01 141.522 158.721 142.367 158.635 143.24C158.59 143.92 158.606 144.601 158.683 145.278L159.264 152.17C159.377 153.185 159.318 154.212 159.089 155.208C159.685 155.293 160.293 155.193 160.829 154.922C161.375 154.668 161.872 154.334 162.395 154.046C163.296 153.539 164.29 153.198 165.077 152.527C165.219 152.416 165.342 152.282 165.44 152.13C165.566 151.84 165.651 151.534 165.693 151.221C165.76 150.977 165.845 150.739 165.947 150.507C166.238 149.812 166.492 149.103 166.708 148.381C166.856 147.902 166.972 147.414 167.056 146.921C167.119 146.528 167.152 146.131 167.188 145.736C167.228 145.115 167.352 144.502 167.556 143.914C168.059 142.51 168.344 141.037 168.4 139.547C168.418 139.332 168.403 139.115 168.357 138.904C168.27 138.649 168.152 138.404 168.007 138.175C167.766 137.722 167.621 137.224 167.393 136.766C166.886 135.728 165.975 134.941 165.023 134.28C164.536 133.959 164.001 133.609 163.473 133.809Z" fill="#2F2E41"/>
<path d="M151.361 145.055C150.949 144.84 150.576 144.558 150.257 144.22C150.112 144.05 150.003 143.86 149.846 143.693C149.473 143.297 148.99 143.022 148.458 142.904C147.93 142.788 147.39 142.736 146.85 142.749C146.489 142.724 146.126 142.768 145.781 142.878C145.608 142.935 145.453 143.034 145.328 143.167C145.204 143.3 145.116 143.462 145.071 143.638C144.992 144.068 145.274 144.486 145.611 144.759C145.925 145.015 146.294 145.194 146.69 145.283C147.012 145.339 147.337 145.377 147.664 145.397C149.582 145.597 151.295 146.637 152.974 147.586C154.451 148.418 155.956 149.197 157.491 149.923C157.551 149.465 157.577 149.002 157.567 148.541C157.567 148.196 157.541 147.67 157.214 147.467C156.833 147.229 156.199 147.176 155.778 147.034C154.789 146.713 153.824 146.324 152.888 145.87C152.358 145.615 151.85 145.344 151.361 145.055Z" fill="#FBBEBE"/>
<path d="M159.746 134.245C161.634 134.245 163.164 132.709 163.164 130.815C163.164 128.921 161.634 127.385 159.746 127.385C157.859 127.385 156.328 128.921 156.328 130.815C156.328 132.709 157.859 134.245 159.746 134.245Z" fill="#FBBEBE"/>
<path d="M164.45 137.697C164.178 138.078 163.956 138.493 163.788 138.93C163.364 139.798 162.702 140.542 162.372 141.461C162.022 142.415 162.035 143.552 161.357 144.303C161.221 144.417 161.118 144.566 161.06 144.734C161.056 144.838 161.044 144.942 161.025 145.045C160.928 145.318 160.479 145.331 160.396 145.609C160.373 145.69 160.396 145.779 160.355 145.863C160.287 146.042 160.051 146.068 159.891 146.176C159.558 146.402 159.637 146.923 159.383 147.247C159.28 147.367 159.147 147.458 158.997 147.511C158.848 147.563 158.687 147.575 158.531 147.546C158.22 147.48 157.92 147.369 157.643 147.214C157.545 147.159 157.437 147.126 157.326 147.115C157.193 147.118 157.065 147.162 156.958 147.24C156.326 147.639 156.029 148.434 156.034 149.183C156.079 149.933 156.257 150.668 156.559 151.355C156.595 151.474 156.655 151.584 156.735 151.679C156.943 151.899 157.308 151.864 157.587 151.74C157.848 151.585 158.127 151.461 158.417 151.37C158.944 151.274 159.462 151.639 159.997 151.608C160.389 151.549 160.758 151.386 161.065 151.137C161.609 150.808 162.095 150.394 162.507 149.91C162.74 149.604 162.913 149.254 163.118 148.928C163.38 148.527 163.669 148.143 163.981 147.779L165.952 145.372C166.15 145.144 166.327 144.899 166.482 144.64C166.66 144.29 166.799 143.922 166.896 143.542C167.107 142.907 167.244 142.251 167.304 141.585C167.314 141.034 167.266 140.483 167.16 139.942C167.094 139.404 166.951 138.878 166.736 138.38C166.297 137.495 165.254 136.761 164.45 137.697Z" fill="#2F2E41"/>
<path d="M171.316 133.23C171.318 132.621 171.176 132.021 170.901 131.479C170.626 130.936 170.225 130.467 169.732 130.109C169.718 129.029 169.319 127.99 168.607 127.176C167.896 126.363 166.918 125.828 165.848 125.666C165.641 124.644 165.079 123.727 164.261 123.077C163.443 122.428 162.421 122.087 161.376 122.115C160.331 122.143 159.329 122.538 158.547 123.231C157.765 123.924 157.254 124.87 157.102 125.902C155.682 125.583 154.383 125.998 154.147 126.871C153.893 127.785 154.908 128.853 156.41 129.258C156.88 129.391 157.371 129.44 157.858 129.402C158.208 129.914 158.66 130.347 159.187 130.674C159.714 131.001 160.304 131.215 160.918 131.301C161.099 132.126 161.507 132.885 162.096 133.492C162.686 134.099 163.433 134.53 164.255 134.736C164.482 135.284 164.835 135.771 165.285 136.158C165.285 136.264 165.267 136.373 165.267 136.485C165.251 136.874 165.313 137.262 165.451 137.626C165.589 137.991 165.8 138.323 166.07 138.604C166.34 138.886 166.665 139.109 167.024 139.262C167.383 139.415 167.769 139.494 168.159 139.494C168.55 139.494 168.936 139.415 169.295 139.262C169.654 139.109 169.979 138.886 170.249 138.604C170.519 138.323 170.729 137.991 170.867 137.626C171.005 137.262 171.068 136.874 171.052 136.485C171.052 136.048 170.958 135.616 170.775 135.219C171.132 134.617 171.319 133.929 171.316 133.23Z" fill="#F86D70"/>
<path opacity="0.1" d="M155.111 127.046C155.347 126.173 156.633 125.758 158.066 126.077C158.233 125.028 158.766 124.072 159.57 123.378C160.375 122.683 161.4 122.294 162.463 122.28C162.562 122.28 162.661 122.28 162.758 122.28C162.347 122.155 161.919 122.092 161.489 122.093C160.425 122.107 159.401 122.496 158.596 123.19C157.792 123.885 157.259 124.841 157.092 125.889C155.671 125.57 154.372 125.985 154.136 126.859C153.883 127.772 154.898 128.841 156.4 129.246C156.679 129.323 156.965 129.372 157.255 129.392C155.829 128.977 154.87 127.939 155.111 127.046Z" fill="black"/>
<path opacity="0.1" d="M166.231 136.662C166.231 136.55 166.231 136.442 166.249 136.333C165.799 135.946 165.446 135.46 165.219 134.913C164.398 134.705 163.651 134.273 163.062 133.666C162.473 133.059 162.064 132.301 161.882 131.475C161.268 131.39 160.678 131.176 160.151 130.849C159.624 130.523 159.172 130.089 158.823 129.577C158.538 129.6 158.253 129.592 157.97 129.554C158.321 130.026 158.762 130.423 159.268 130.723C159.774 131.023 160.335 131.219 160.918 131.301C161.099 132.126 161.507 132.885 162.096 133.492C162.686 134.099 163.433 134.53 164.255 134.736C164.482 135.284 164.835 135.771 165.285 136.158C165.285 136.264 165.267 136.373 165.267 136.485C165.254 137.261 165.549 138.01 166.088 138.57C166.627 139.129 167.366 139.453 168.144 139.471C167.577 139.253 167.089 138.867 166.747 138.365C166.406 137.863 166.226 137.269 166.231 136.662Z" fill="black"/>
<path d="M161.31 132.072C161.542 131.896 161.54 131.503 161.305 131.195C161.07 130.886 160.692 130.779 160.459 130.955C160.227 131.131 160.23 131.523 160.464 131.832C160.699 132.14 161.078 132.247 161.31 132.072Z" fill="#FBBEBE"/>
<path d="M79.6168 149.138L82.9963 147.156C82.5396 146.377 81.9556 145.68 81.2685 145.093L74.8951 147.07L79.8883 144.141C78.6518 143.466 77.2604 143.123 75.8509 143.147C74.4414 143.171 73.0624 143.56 71.8497 144.277C70.6369 144.994 69.6321 146.014 68.9343 147.236C68.2364 148.458 67.8695 149.84 67.8696 151.246C67.8696 155.719 71.5054 155.873 75.9886 155.873C80.4718 155.873 84.1076 155.719 84.1076 151.246C84.1103 150.113 83.8725 148.991 83.4099 147.956L79.6168 149.138Z" fill="#158AFF"/>
<path opacity="0.1" d="M80.4769 153.486C80.117 153.127 79.7149 152.811 79.2793 152.547C78.6679 152.14 78.031 151.725 77.3079 151.588C76.6737 151.467 76.0191 151.57 75.3721 151.532C74.2487 151.464 73.1912 150.98 72.4061 150.176C71.9443 149.7 71.5815 149.115 71.0259 148.751C70.4049 148.382 69.6721 148.249 68.9606 148.373C68.7544 148.402 68.5502 148.444 68.3492 148.497C68.0311 149.379 67.8689 150.309 67.8696 151.246C67.8696 155.719 71.5054 155.873 75.9886 155.873C78.1655 155.873 80.1394 155.838 81.5983 155.289L81.3446 154.835C81.1141 154.351 80.8225 153.897 80.4769 153.486Z" fill="black"/>
</g>
<defs>
<linearGradient id="paint0_linear_527_477" x1="143.985" y1="161.902" x2="143.985" y2="121.495" gradientUnits="userSpaceOnUse">
<stop stop-color="#808080" stop-opacity="0.25"/>
<stop offset="0.54" stop-color="#808080" stop-opacity="0.12"/>
<stop offset="1" stop-color="#808080" stop-opacity="0.1"/>
</linearGradient>
<clipPath id="clip0_527_477">
<rect width="290" height="168" fill="white"/>
</clipPath>
</defs>
</svg>
