<svg width="31" height="31" viewBox="0 0 31 31" fill="none" xmlns="http://www.w3.org/2000/svg">
<path d="M15.5 17.4375C20.3135 17.4375 24.2188 13.5322 24.2188 8.71875C24.2188 3.90527 20.3135 0 15.5 0C10.6865 0 6.78125 3.90527 6.78125 8.71875C6.78125 13.5322 10.6865 17.4375 15.5 17.4375ZM23.25 19.375H19.9139C18.5697 19.9926 17.0742 20.3438 15.5 20.3438C13.9258 20.3438 12.4363 19.9926 11.0861 19.375H7.75C3.46934 19.375 0 22.8443 0 27.125V28.0938C0 29.6982 1.30176 31 2.90625 31H28.0938C29.6982 31 31 29.6982 31 28.0938V27.125C31 22.8443 27.5307 19.375 23.25 19.375Z" fill="#A6A6A6"/>
</svg>
